<svg width="700" height="100" xmlns="http://www.w3.org/2000/svg" version="1.1">
 <defs>
  <radialGradient gradientTransform="rotate(48,0.51953125,0.48516845703125) translate(0.7117578125,0) scale(-0.37,1)" r="1.80574" cy="0.48517" cx="0.51953" fy="0.74298" fx="0.33203" spreadMethod="pad" id="svg_138">
   <stop offset="0" stop-color="#ff0000"/>
   <stop offset="1" stop-color="#00ffff"/>
  </radialGradient>
 </defs>
 <g>
  <title>Layer 1</title>
  <path stroke="null" stroke-width="0" id="svg_71" d="m433.02499,24.87088q0.08,28.94 0.01,58.16q-0.01,4.46 -3.34,6.26c-3.24,1.74 -10.4,0.99 -14.49,0.99a1.36,1.33 -22.1 0 1 -0.95,-0.39l-37.18,-37.48a1.31,1.3 22.9 0 1 -0.37,-0.91l0,-3.73q0.01,-0.45 0.46,-0.45q13.93,-0.12 17.97,-0.04c8.77,0.19 16.85,-4.01 17.6,-13.53q0.99,-12.55 -8.38,-16.55q-3.74,-1.6 -12.68,-1.64q-9.75,-0.04 -19.5,0.01q-0.53,0.01 -0.53,0.54q-0.04,32.97 0,65.91c0,6.69 -3.48,8.24 -9.7,8.25q-21.17,0.03 -42.32,0q-4.73,-0.01 -6.76,-1.22c-4.09,-2.43 -3.94,-9.95 0.58,-12.18q1.71,-0.85 5.51,-0.85q15.66,-0.03 31.19,-0.01a1.75,1.74 0.7 0 0 1.75,-1.7l0.01,-0.52q0.06,-2.24 -2.18,-2.23q-12.51,0.02 -25.09,-0.01q-5.78,-0.01 -8.33,-1.19c-8.94,-4.11 -8.4,-18.83 0.97,-22.27q2.06,-0.76 6.82,-0.79q8.48,-0.04 16.95,-0.03a1.51,1.51 0 0 0 1.52,-1.46l0.01,-0.41q0.06,-1.83 -1.77,-1.83q-8.54,0.02 -16.47,-0.03q-5.67,-0.04 -8.18,-1.28c-11.15,-5.53 -6.76,-23.19 6.23,-23.09q13.66,0.11 27.75,0.1q1.81,0 1.78,-1.81l-0.01,-0.41a1.5,1.5 0 0 0 -1.5,-1.47l-44.02,-0.02q-0.48,0 -0.48,0.49q-0.06,33.26 -0.01,66.48c0.01,5.96 -3.57,7.68 -9.14,7.71q-11,0.04 -21.99,0.05q-7.81,0.01 -10.56,-1.23c-5.64,-2.55 -6.57,-7.54 -6.57,-13.7q0,-27.94 0,-55.82a0.25,0.25 0 0 1 0.25,-0.25l26.43,-0.02a1.31,1.31 0 0 0 1.31,-1.37l-0.02,-0.47q-0.08,-1.87 -1.96,-1.87l-56.03,0q-1.89,0 -1.95,1.89l-0.01,0.3a1.48,1.47 -89.1 0 0 1.47,1.53l26.25,0a0.26,0.26 0 0 1 0.26,0.26q0.01,27.26 0,54.56q-0.01,7.31 -1.44,10.13c-2.68,5.26 -7.39,6.04 -13.33,6.04q-25.57,0.01 -51.05,0q-0.31,0 -0.3,-0.3l0.07,-4.71q0.01,-0.33 0.33,-0.33c21.41,-0.24 24.72,-31.06 4.97,-35.87c-5.03,-1.22 -12.15,-0.68 -16.52,-5.66c-3.42,-3.89 -4.17,-10.79 -2.14,-15.53c5.56,-12.98 25.46,-10.88 27.4,3.41q0.15,1.12 0.32,5.59a1.43,1.43 0 0 0 1.39,1.38l0.43,0.01q1.98,0.07 2.08,-1.91q0.71,-14.63 -10.76,-19.21c-9.82,-3.92 -22.64,0.2 -25.29,11.31c-2.94,12.33 3.51,22.68 16.47,23.79q4.9,0.42 5.68,0.66c8.66,2.6 11.96,12.2 8.64,20.13c-3.31,7.92 -14.24,10.76 -20.86,6.17c-6.66,-4.61 -6.63,-10.52 -6.64,-18.17a1.51,1.5 1.4 0 0 -1.44,-1.5l-0.44,-0.02q-2.07,-0.09 -2.07,1.98q0.01,9.42 -0.01,18.79c-0.02,11.51 -6.61,10.13 -15.38,9.97q-0.53,-0.01 -0.78,-0.49l-13.59,-26.99q-0.24,-0.48 -0.79,-0.48q-11.68,-0.03 -23.29,-0.01q-4.89,0.01 -7.03,-1.38c-5.38,-3.52 -3.43,-13.42 4.37,-13.5q9.46,-0.09 18.49,-0.16q0.7,0 0.38,-0.63l-13.88,-27.58q-0.29,-0.59 -0.59,0l-35.45,70.94a0.54,0.54 0 0 1 -0.48,0.29q-23.67,0.04 -47.55,0.01q-4.94,-0.01 -7.08,-1.32c-4.07,-2.5 -3.71,-10.26 1.08,-12.27q1.59,-0.66 5.26,-0.67q15.39,-0.01 31.08,0a1.75,1.75 0 0 0 1.75,-1.69l0.02,-0.51q0.08,-2.26 -2.19,-2.26q-12.57,0.04 -25.12,-0.01q-6.02,-0.02 -8.7,-1.39c-10.72,-5.49 -6.54,-22.97 6.23,-22.91q9.45,0.05 18.95,0.02a1.48,1.48 0 0 0 1.48,-1.44l0.02,-0.43q0.05,-1.81 -1.75,-1.81q-8.15,0 -16.14,-0.03q-5.9,-0.03 -8.42,-1.23c-8.73,-4.17 -8.46,-18.75 0.84,-22.2q2.17,-0.8 7.12,-0.82q12.9,-0.04 25.91,-0.02q1.84,0 1.77,-1.84l-0.02,-0.42a1.51,1.51 0 0 0 -1.51,-1.45l-43.99,-0.01q-0.46,0 -0.46,0.47q-0.17,51.49 -0.02,65.25q0.11,9.81 -9.82,8.96q-0.23,-0.02 -0.23,-0.24l0.03,-4.86q0.01,-0.25 0.25,-0.21q4.46,0.59 4.46,-2.15q0.01,-36.13 0,-72.17q0,-0.32 0.33,-0.32q22.68,-0.02 45.4,-0.01q5.42,0 7.46,0.95c4.44,2.07 4.72,10.22 -0.14,12.5q-1.63,0.76 -5.16,0.79q-11.43,0.08 -22.85,0.03q-5.16,-0.03 -6.93,0.73c-4.41,1.89 -4.85,9.78 -0.37,12.14q1.58,0.84 5.24,0.85q7.23,0.01 14.46,0.02q4.87,0.01 6.96,1.28c5.41,3.29 3.12,12.77 -4.37,12.85q-8.36,0.08 -16.73,0.08q-4.12,0 -5.83,1.06c-3.71,2.32 -4.03,9.44 -0.16,11.75q1.6,0.95 5.61,0.96q12.08,0.03 24.16,0.01q3.89,-0.01 5.76,0.94c6.98,3.55 4.09,14.01 -4.06,14.01q-16.34,0.02 -32.77,0.08a1.46,1.45 -90 0 0 -1.45,1.46l0.01,0.39a1.84,1.84 0 0 0 1.84,1.84l46.85,0.01a0.83,0.82 -76.6 0 0 0.74,-0.46l37.07,-73.76a2.3,2.3 0 0 1 4.12,0.01l20.5,41.19q0.28,0.57 -0.35,0.57l-26.91,0q-2.32,0 -2.18,2.32l0.02,0.43a1.79,1.79 0 0 0 1.79,1.68l29.72,0.01a0.51,0.5 76.6 0 1 0.45,0.28l13.6,27.21q0.28,0.57 0.91,0.56l5.41,-0.11a1.38,1.38 0 0 0 1.35,-1.37q0.01,-9.97 0.01,-19.53q0,-4.55 0.94,-6.36c2.35,-4.52 10.15,-4.49 12.6,-0.01c1.99,3.64 0.18,8.06 1.43,11.98q2.37,7.37 10.55,6.16c8.46,-1.25 9.75,-13.49 2.29,-17.23c-2.59,-1.3 -6.01,-0.91 -8.49,-1.38c-14.03,-2.63 -20.91,-13.82 -19.2,-27.46c1.43,-11.47 12.3,-19.96 24.06,-19.51c13.48,0.51 22.61,9.33 23.18,23.29q0.09,2.02 -0.24,3.97c-1.48,8.72 -13.74,8.05 -14.4,-1.23c-0.4,-5.48 -0.49,-9.86 -6.77,-11.39c-7.23,-1.75 -13.47,4.9 -11.03,11.94c2.19,6.3 6.68,5.69 12.11,6.4c13.13,1.72 20.43,11.29 20.19,24.56c-0.14,7.58 -2.7,11.37 -7.5,16.69q-0.47,0.53 0.23,0.53q18.02,0.05 36.01,0c4.68,-0.02 8.51,-0.84 8.52,-6.21q0.02,-27 0.01,-53.96a0.28,0.27 0 0 0 -0.28,-0.27q-9.25,0.03 -18.54,-0.01q-4.48,-0.01 -6.52,-1.41c-5.1,-3.48 -2.93,-12.63 4.37,-12.68q26.93,-0.15 53.85,-0.18c5.1,0 9.66,1.07 9.67,6.91c0,5.32 -3.24,7.37 -8.27,7.36q-9.6,-0.02 -19.21,0.02q-0.51,0.01 -0.52,0.52q-0.03,26.25 0.01,52.45c0.01,7.99 4.7,7.47 11.3,7.47q10.35,0 20.71,0.01q0.51,0 0.51,0.51l0.02,3.76q0,0.08 0.19,0.08l0,0q0.21,0 0.21,-0.08l-0.06,-3.68q-0.01,-0.54 0.53,-0.56l2.75,-0.11a1.6,1.59 -1.1 0 0 1.54,-1.59l0,-72.8a0.26,0.26 0 0 1 0.26,-0.26q22.77,0 45.58,0q5.29,0 7.24,0.88c4.51,2.05 4.83,10.15 0.08,12.52q-1.69,0.84 -5.42,0.86q-11.66,0.05 -23.31,0.01q-4.86,-0.01 -6.7,0.93c-4.11,2.09 -4.31,9.65 0.01,11.95q1.57,0.83 5.19,0.84q7.58,0.01 15.16,0.02q3.87,0 5.71,1c6.47,3.52 3.59,13.23 -4.03,13.22q-8.27,-0.01 -16.54,-0.01q-4.32,0.01 -6.13,1.36c-3.39,2.52 -3.6,9.4 0.44,11.6q1.44,0.79 5.09,0.8q11.67,0.05 23.33,0.01q5.03,-0.01 6.98,0.9c4.79,2.26 4.96,10.63 0.16,13.12q-1.88,0.97 -6.33,0.97q-15.35,0.02 -30.69,0.03a1.52,1.51 0.2 0 0 -1.51,1.49l-0.01,0.37a1.83,1.83 0 0 0 1.83,1.85l47.38,0.01a1.98,1.97 -90 0 0 1.97,-1.98l0,-72.49a0.24,0.24 0 0 1 0.24,-0.24q14.01,-0.07 28.04,0.01q6.29,0.04 9.32,0.97c10.98,3.37 15.7,13.23 14.04,24.16c-1.72,11.29 -11.46,17.42 -22.36,17.04q-4.38,-0.15 -10.29,0.1q-0.57,0.03 -0.17,0.43l31.12,31.54q0.43,0.43 1.04,0.44l8.82,0.07a1.68,1.68 0 0 0 1.7,-1.68l0,-72.59q0,-0.51 0.52,-0.51l3,0a0.9,0.9 0 0 1 0.8,0.49l32.2,64.48q0.67,1.33 0.67,-0.15q0.04,-27.7 0.03,-55.33q0,-4.66 1.38,-6.7c2.64,-3.89 10.11,-3.72 12.35,0.77q0.82,1.65 0.82,5.52q0.02,31.94 0.01,63.49q0,2.24 2.23,2.21l5.04,-0.05q2.22,-0.03 2.22,-2.25l-0.01,-71.96q0,-0.47 0.48,-0.48q19.36,-0.14 25.78,-0.04q8.18,0.13 15.95,3.81q17.89,8.49 18.94,28.95c1.03,19.97 -9.53,34.44 -29.69,37.77c-4.61,0.76 -10.5,0.43 -15.86,0.56a1.29,1.29 0 0 0 -1.25,1.42l0.04,0.41q0.19,1.8 2.01,1.8l51.35,0.01a0.84,0.82 -76.6 0 0 0.74,-0.47l37.07,-73.75a2.3,2.3 0 0 1 4.12,0.01l20.47,41.12q0.31,0.64 -0.4,0.64l-27.23,0a1.77,1.77 0 0 0 -1.77,1.72l-0.01,0.44q-0.06,2.28 2.22,2.28l29.3,0a0.52,0.51 -13 0 1 0.46,0.28l13.58,27.18q0.28,0.56 0.9,0.55l5.17,-0.02a1.63,1.63 0 0 0 1.63,-1.63q0.01,-31.61 0.01,-63.51q0,-4.76 1.41,-6.84c3.45,-5.1 12.75,-3.09 12.9,4.27q0.2,10.03 0.21,20.07q0.01,4.96 0.85,6.74c2.01,4.25 9.87,4.32 11.92,-0.25q0.67,-1.49 0.69,-5.21q0.06,-9.03 -0.01,-18.06q-0.03,-5.08 1.35,-7.34c2.49,-4.08 10.42,-3.95 12.53,0.94q0.66,1.53 0.67,4.8q0.04,18.8 0,37.59q-0.01,6.84 -0.83,9.85c-2.28,8.42 -9.45,14.29 -18.19,14.71q-3.58,0.17 -7.53,0.24a1.42,1.41 0.6 0 0 -1.4,1.36l-0.02,0.4a1.8,1.8 0 0 0 1.8,1.88l30.65,0.01a0.26,0.26 0 0 1 0.26,0.26l0,4.74a0.26,0.26 0 0 1 -0.26,0.26q-13.82,0.02 -27.81,0q-4.96,-0.01 -7.09,-1.33c-3.97,-2.47 -3.76,-9.97 0.85,-12.13q1.53,-0.72 4.71,-0.78c7.21,-0.13 13.51,-0.24 17.24,-7.52q2.41,-4.7 2.42,-11.23q0.04,-20.04 0.01,-39.78q0,-2.23 -2.21,-1.92l-0.42,0.06a1.67,1.66 86 0 0 -1.43,1.65q-0.03,9.43 0,18.92q0.01,7.52 -1.49,10.41c-2.67,5.11 -8.8,6.74 -14.17,5.32q-8.19,-2.18 -8.25,-12.16q-0.06,-11 -0.12,-22.52a1.64,1.63 -86.1 0 0 -1.4,-1.61l-0.39,-0.06q-2.2,-0.32 -2.2,1.91q0.02,31.73 0,63.38c0,11.12 -7.27,9.5 -15.38,9.39q-0.52,-0.01 -0.76,-0.48l-13.59,-27.01q-0.25,-0.49 -0.81,-0.49q-11.79,-0.02 -23.5,-0.02q-4.65,0.01 -6.64,-1.25c-4.14,-2.61 -4.19,-10.35 0.29,-12.78q1.75,-0.94 5.96,-0.95q8.36,-0.02 16.6,-0.01q0.54,0 0.3,-0.49l-14.06,-27.96a0.22,0.22 0 0 0 -0.4,0l-35.47,70.97a0.87,0.86 -76.5 0 1 -0.77,0.48q-25.43,0 -50.69,0.01q-5.48,0 -7.48,-0.88c-4.6,-2.02 -5.12,-10.49 -0.01,-12.69q1.63,-0.7 5.46,-0.67c7.67,0.06 12.96,0.15 19.44,-2.37q17.05,-6.62 18.34,-25.13c1.34,-19.27 -11.27,-32.89 -30.57,-32.97q-10,-0.04 -19.96,-0.02a0.3,0.29 -90 0 0 -0.29,0.3q0.01,32.69 -0.01,65.45c-0.01,4.2 -1.09,8.01 -5.48,8.75c-5.79,0.98 -14.43,0.83 -14.44,-7.03q-0.05,-32.9 -0.04,-65.69a1.58,1.57 90 0 0 -1.57,-1.58l-0.95,-0.01a1.53,1.52 0 0 0 -1.53,1.52l0,72.52q0,0.49 -0.49,0.49l-3.22,0q-0.43,0 -0.62,-0.38l-32.69,-65.11a0.17,0.17 0 0 0 -0.32,0.08zm-357.43,63.44q-0.19,0.27 -0.07,0.62a0.12,0.12 0 0 0 0.24,-0.04l0,-2.81q0,-0.4 -0.14,-0.03q-0.36,0.96 0.01,1.84a0.43,0.42 -39.9 0 1 -0.04,0.42zm563.04,-0.07l-0.15,0.28q-0.07,0.14 0.02,0.14q0.07,0 0.13,0q0.13,0 0.13,-0.13l0,-2.28q0,-0.58 -0.19,-0.03q-0.27,0.83 0.07,1.6q0.1,0.21 -0.01,0.42z" fill="url(#svg_138)"/>
 </g>
</svg>