<svg width="24" height="24" xmlns="http://www.w3.org/2000/svg" version="1.1" preserveAspectRatio="none" ref="svg_canvas">

 <g>
  <title>Layer 1</title>
  <g transform="matrix(1 0 0 1 12 12)" stroke="null" id="svg_5" display="inline">
   <rect stroke="null" id="svg_6" y="-12" x="-12" height="24" width="24" fill="rgba(0,0,0,0)"/>
   <g stroke="null" transform="matrix(2 0 0 2 12 12)" id="svg_38">
    <svg stroke="null" data-parent="shape_anO1dEtL5Z" preserveAspectRatio="none" class="style-removed" height="12" width="12" xml:space="preserve" viewBox="0 0 205.7100067138672 205.70001220703125" y="-12" x="-12" id="svg_1" version="1.1" xmlns:xlink="http://www.w3.org/1999/xlink" xmlns="http://www.w3.org/2000/svg">
     <path stroke="null" id="svg_7" fill="#1428A0" d="m156.57,15.14c-2.26,-1.4 -4.65,-2.74 -7.12,-4c-2.38,-1.21 -4.82,-2.34 -7.25,-3.34c-4.06,-1.68 -8.22,-3.1 -12.33,-4.2c-4.82,-1.32 -9.84,-2.29 -14.9,-2.89c-3.96,-0.47 -8.04,-0.71 -12.12,-0.71c-0.63,0 -1.26,0 -1.88,0.02c-5.09,0.09 -10.17,0.55 -15.07,1.37c-20.06,3.32 -38.53,12.47 -53.43,26.46c-5.83,5.47 -11.03,11.64 -15.44,18.31c-0.86,1.29 -1.7,2.62 -2.45,3.89c-2.01,3.33 -3.85,6.83 -5.47,10.42c-1.82,4.03 -3.38,8.18 -4.66,12.37l-0.28,0.92c-1.35,4.56 -2.38,9.25 -3.07,13.95l-0.05,0.35c-0.04,0.24 -0.07,0.49 -0.09,0.73c-0.59,4.24 -0.91,8.54 -0.95,12.78c-0.01,0.43 -0.01,0.85 -0.01,1.28c0,0.35 0,0.71 0.01,1.05c0.04,4.24 0.34,8.52 0.91,12.72c0.04,0.35 0.09,0.69 0.14,1.03l0.02,0.11c0.7,4.78 1.73,9.5 3.08,14.06c0.07,0.25 0.14,0.5 0.21,0.74c1.25,4.2 2.79,8.33 4.56,12.24c1.07,2.4 2.26,4.81 3.55,7.18c0.67,1.23 1.37,2.45 2.1,3.68c0.67,1.1 1.35,2.19 2.06,3.28c4.49,6.89 9.81,13.24 15.82,18.89c16.1,15.12 36.15,24.5 58,27.13c4.05,0.49 8.22,0.74 12.39,0.74c0.9,0 1.79,-0.01 2.7,-0.03c4.68,-0.13 9.36,-0.57 13.9,-1.31c5,-0.8 10,-2 14.83,-3.56c4.16,-1.32 8.3,-2.95 12.3,-4.84c4.93,-2.32 9.69,-5.05 14.16,-8.1c28.16,-19.2 44.97,-50.98 44.97,-85.01c0,-36.07 -18.38,-68.87 -49.14,-87.71zm-3.72,161.16c-3.86,2.64 -7.98,4.99 -12.24,7c-3.44,1.62 -7,3.02 -10.6,4.17c-4.18,1.35 -8.48,2.38 -12.8,3.07c-3.93,0.64 -7.99,1.02 -12.02,1.13c-4.34,0.1 -8.8,-0.1 -13.06,-0.61c-16.02,-1.93 -30.92,-8.07 -43.57,-17.88l63.35,0l0,-14l-77.76,0c-2.07,-2.52 -4,-5.14 -5.78,-7.87c-0.62,-0.96 -1.24,-1.93 -1.8,-2.86c-0.62,-1.04 -1.23,-2.12 -1.82,-3.19c-1.1,-2.03 -2.13,-4.1 -3.06,-6.19c-1.53,-3.38 -2.85,-6.93 -3.93,-10.55c-0.03,-0.09 -0.05,-0.18 -0.08,-0.26l-0.08,-0.3c-1.17,-3.95 -2.08,-8.06 -2.69,-12.22l-0.02,-0.12c-0.03,-0.23 -0.07,-0.46 -0.1,-0.69l-0.02,-0.12c-0.22,-1.64 -0.39,-3.29 -0.52,-4.95l17.54,0l0,40.34l80.1,0l0,-14l-66.1,0l0,-26.34l6.63,0l0,20.01l59.47,0l0,-14l-45.44,0l0,-6.01l45.47,0l0,-14l-45.47,0l0,-7.67l45.47,0l0,-14l-59.47,0l0,21.67l-6.63,0l0,-26.35l66.1,0l0,-14l-80.1,0l0,40.34l-17.54,0c0.14,-1.75 0.32,-3.5 0.57,-5.23l0.03,-0.29c0.01,-0.1 0.03,-0.2 0.04,-0.3l0.04,-0.3c0.59,-4.04 1.48,-8.08 2.63,-11.96l0.27,-0.89c1.09,-3.59 2.44,-7.17 4.01,-10.64c1.4,-3.08 2.98,-6.1 4.74,-9.02c0.65,-1.1 1.34,-2.21 2.08,-3.31c1.69,-2.56 3.52,-5.02 5.46,-7.39l77.76,0l0,-14l-63.34,0c11.58,-8.97 25.12,-14.91 39.63,-17.32c4.25,-0.71 8.65,-1.11 13.07,-1.18l0.13,0c0.4,-0.01 0.82,-0.02 1.23,-0.02c3.63,0 7.21,0.2 10.7,0.61c4.38,0.52 8.7,1.35 12.88,2.5c3.56,0.96 7.14,2.18 10.65,3.63c2.09,0.86 4.19,1.83 6.25,2.88c2.12,1.08 4.17,2.23 6.13,3.44c26.6,16.29 42.48,44.63 42.48,75.79c-0.01,29.4 -14.53,56.86 -38.87,73.45z"/>
    </svg>
   </g>
  </g>
 </g>
</svg>