<?xml version="1.0" encoding="UTF-8" standalone="no"?>
<!DOCTYPE svg PUBLIC "-//W3C//DTD SVG 1.1//EN" "http://www.w3.org/Graphics/SVG/1.1/DTD/svg11.dtd">
<svg xmlns="http://www.w3.org/2000/svg" version="1.1" viewBox="0.00 0.00 709.00 650.00">
<path fill="#a653f6" d="
  M 353.76 17.31
  L 353.76 33.38
  A 0.34 0.34 0.0 0 1 353.66 33.62
  L 351.49 35.80
  A 0.34 0.34 0.0 0 1 351.01 35.80
  L 348.82 33.62
  A 0.34 0.34 0.0 0 1 348.72 33.38
  L 348.72 17.34
  A 0.34 0.34 0.0 0 1 348.82 17.10
  L 351.00 14.92
  A 0.34 0.34 0.0 0 1 351.48 14.92
  L 353.66 17.07
  A 0.34 0.34 0.0 0 1 353.76 17.31
  Z"
/>
<path fill="#a653f6" d="
  M 306.77 36.00
  Q 307.14 38.16 305.00 39.64
  Q 304.66 39.87 304.33 39.64
  L 302.46 38.33
  A 1.46 1.46 0.0 0 1 301.87 37.41
  L 299.23 22.45
  A 1.13 1.13 0.0 0 1 299.41 21.64
  L 300.85 19.61
  Q 301.22 19.08 301.75 19.44
  L 303.71 20.77
  A 1.33 1.32 -78.1 0 1 304.26 21.62
  Q 305.53 28.82 306.77 36.00
  Z"
/>
<path fill="#a653f6" d="
  M 402.46 20.58
  C 402.93 21.25 403.33 22.00 403.17 22.87
  Q 401.85 30.15 400.60 37.46
  A 1.34 1.32 77.2 0 1 400.06 38.33
  L 397.98 39.81
  Q 397.58 40.10 397.29 39.70
  L 395.78 37.59
  Q 395.48 37.16 395.57 36.65
  L 398.21 21.69
  Q 398.30 21.18 398.72 20.88
  L 400.72 19.45
  Q 401.12 19.16 401.48 19.48
  Q 402.05 19.99 402.46 20.58
  Z"
/>
<path fill="#a653f6" d="
  M 259.56 51.84
  C 258.41 51.51 256.86 50.89 256.42 49.67
  Q 253.92 42.72 251.36 35.78
  Q 251.20 35.34 251.40 34.91
  L 252.49 32.53
  Q 252.72 32.03 253.22 32.27
  L 255.47 33.33
  Q 255.98 33.57 256.17 34.09
  L 261.34 48.33
  Q 261.53 48.85 261.30 49.36
  L 260.31 51.50
  Q 260.08 51.99 259.56 51.84
  Z"
/>
<path fill="#a653f6" d="
  M 451.07 34.89
  Q 451.28 35.33 451.11 35.79
  Q 448.71 42.31 446.21 49.23
  C 445.62 50.87 444.53 51.40 443.01 51.88
  Q 442.43 52.07 442.17 51.52
  L 441.15 49.33
  Q 440.93 48.85 441.11 48.36
  L 446.33 34.04
  A 1.21 1.19 -2.7 0 1 446.96 33.36
  L 449.29 32.29
  Q 449.76 32.07 449.98 32.54
  L 451.07 34.89
  Z"
/>
<path fill="#a653f6" d="
  M 116.98 414.10
  C 84.24 343.01 84.47 259.88 118.84 189.57
  C 163.93 97.31 257.90 39.75 360.75 42.55
  C 502.91 46.41 615.42 163.91 614.27 305.75
  Q 613.80 362.55 590.15 413.99
  Q 589.92 414.47 590.46 414.47
  Q 644.91 414.54 699.23 414.48
  C 702.80 414.48 703.37 420.28 698.50 420.28
  Q 353.09 420.28 8.27 420.28
  Q 5.43 420.28 5.22 417.45
  L 5.16 416.75
  A 2.11 2.10 88.0 0 1 7.25 414.49
  L 116.73 414.49
  Q 117.16 414.49 116.98 414.10
  Z
  M 249.59 71.60
  C 119.53 130.31 62.91 285.02 124.67 413.95
  A 0.94 0.93 -12.3 0 0 125.52 414.49
  L 581.76 414.49
  A 0.52 0.51 13.0 0 0 582.22 414.21
  Q 585.84 406.90 588.93 399.21
  C 640.87 269.89 579.86 123.88 452.25 69.31
  C 388.28 41.96 313.17 42.90 249.59 71.60
  Z"
/>
<path fill="#a653f6" d="
  M 211.78 55.95
  C 213.80 60.01 216.34 63.96 218.59 67.92
  Q 218.83 68.33 218.70 68.78
  L 218.01 71.26
  Q 217.87 71.76 217.36 71.63
  L 215.04 71.01
  Q 214.41 70.84 214.09 70.28
  L 206.55 57.20
  Q 206.28 56.73 206.42 56.20
  L 207.03 54.04
  Q 207.16 53.56 207.64 53.55
  Q 210.55 53.48 211.78 55.95
  Z"
/>
<path fill="#a653f6" d="
  M 491.93 54.16
  L 494.93 53.38
  A 0.34 0.34 0.0 0 1 495.35 53.62
  L 496.15 56.59
  A 0.34 0.34 0.0 0 1 496.12 56.85
  L 488.13 70.71
  A 0.34 0.34 0.0 0 1 487.92 70.87
  L 484.93 71.67
  A 0.34 0.34 0.0 0 1 484.51 71.43
  L 483.69 68.45
  A 0.34 0.34 0.0 0 1 483.72 68.19
  L 491.72 54.32
  A 0.34 0.34 0.0 0 1 491.93 54.16
  Z"
/>
<path fill="#a653f6" d="
  M 355.75 70.75
  L 355.15 75.03
  Q 355.02 75.93 354.60 75.12
  L 352.61 71.32
  Q 352.32 70.79 351.87 71.19
  L 348.59 74.12
  Q 347.97 74.68 348.15 73.86
  L 349.10 69.51
  Q 349.22 68.99 348.69 69.02
  L 344.20 69.23
  Q 343.38 69.26 344.03 68.76
  L 347.58 66.03
  A 0.42 0.42 0.0 0 0 347.58 65.37
  L 344.08 62.68
  Q 343.42 62.18 344.25 62.21
  L 348.58 62.38
  Q 349.20 62.40 349.08 61.79
  L 348.21 57.55
  Q 348.05 56.77 348.63 57.31
  L 351.90 60.28
  Q 352.32 60.66 352.59 60.17
  L 354.74 56.21
  Q 355.08 55.60 355.17 56.29
  L 355.77 60.76
  Q 355.84 61.28 356.34 61.09
  L 360.50 59.43
  Q 361.27 59.12 360.82 59.82
  L 358.44 63.49
  Q 358.15 63.95 358.67 64.12
  L 362.76 65.47
  Q 363.70 65.79 362.75 66.08
  L 358.75 67.33
  A 0.48 0.47 -25.2 0 0 358.49 68.03
  L 360.80 71.70
  Q 361.20 72.33 360.51 72.05
  L 356.35 70.40
  Q 355.83 70.19 355.75 70.75
  Z"
/>
<path fill="#a653f6" d="
  M 235.69 101.63
  C 260.92 85.41 289.37 74.84 318.99 70.17
  Q 319.19 70.13 319.22 70.33
  L 319.74 73.28
  A 0.27 0.26 -9.3 0 1 319.51 73.59
  Q 280.63 79.65 246.64 99.20
  Q 242.01 101.86 237.78 104.45
  Q 237.51 104.61 237.32 104.36
  L 235.61 102.11
  A 0.33 0.33 0.0 0 1 235.69 101.63
  Z"
/>
<path fill="#a653f6" d="
  M 388.28 70.33
  C 417.85 75.08 445.96 85.76 471.18 101.95
  Q 471.69 102.28 471.33 102.77
  L 469.92 104.65
  Q 469.56 105.13 469.06 104.80
  Q 431.67 80.72 387.67 73.73
  Q 387.44 73.69 387.48 73.46
  L 388.03 70.50
  Q 388.07 70.29 388.28 70.33
  Z"
/>
<path fill="#a653f6" d="
  M 179.49 98.37
  L 176.42 98.17
  A 0.34 0.34 0.0 0 1 176.18 98.05
  L 165.85 85.74
  A 0.34 0.34 0.0 0 1 165.77 85.49
  L 166.08 82.41
  A 0.34 0.34 0.0 0 1 166.45 82.10
  L 169.53 82.38
  A 0.34 0.34 0.0 0 1 169.76 82.50
  L 180.02 94.72
  A 0.34 0.34 0.0 0 1 180.10 94.97
  L 179.85 98.06
  A 0.34 0.34 0.0 0 1 179.49 98.37
  Z"
/>
<path fill="#a653f6" d="
  M 536.46 82.69
  C 536.65 83.83 536.94 85.40 536.01 86.50
  Q 531.28 92.10 526.57 97.74
  A 1.20 1.18 17.1 0 1 525.74 98.17
  L 523.26 98.36
  Q 522.61 98.42 522.57 97.76
  L 522.44 95.29
  A 1.28 1.24 -27.2 0 1 522.74 94.40
  L 532.54 82.71
  Q 532.84 82.35 533.31 82.32
  L 535.77 82.14
  Q 536.36 82.10 536.46 82.69
  Z"
/>
<path fill="#a653f6" d="
  M 326.12 195.93
  C 321.83 201.88 316.06 206.81 308.34 202.51
  Q 306.77 201.64 305.13 200.82
  Q 304.67 200.60 304.30 200.94
  C 300.38 204.51 294.76 197.24 290.42 197.02
  Q 289.94 197.00 289.52 197.23
  Q 289.25 197.38 289.00 197.31
  A 0.48 0.47 -74.6 0 1 288.68 196.74
  Q 289.15 194.94 288.42 193.22
  A 1.20 1.19 71.4 0 0 287.02 192.52
  L 286.04 192.78
  A 0.44 0.44 0.0 0 1 285.49 192.33
  C 288.05 152.93 331.11 101.05 375.33 121.72
  C 401.03 133.74 423.34 163.53 424.38 192.31
  Q 424.40 193.01 423.84 192.61
  L 421.72 191.11
  A 1.21 1.20 23.1 0 0 419.84 191.86
  L 419.04 196.11
  Q 418.94 196.59 418.49 196.81
  Q 412.83 199.47 406.90 197.67
  C 406.46 197.53 405.74 197.01 405.11 196.87
  Q 404.62 196.75 404.22 197.07
  Q 399.86 200.59 394.05 203.35
  Q 389.49 205.53 385.48 202.53
  C 381.50 199.56 375.64 193.94 370.82 193.01
  Q 370.33 192.92 370.08 193.36
  C 366.25 200.22 359.68 202.15 353.04 204.64
  A 0.93 0.91 -35.4 0 1 352.15 204.50
  C 344.31 198.33 335.02 200.67 326.91 195.77
  Q 326.44 195.49 326.12 195.93
  Z"
/>
<path fill="#a653f6" d="
  M 146.65 127.86
  L 146.90 131.00
  A 0.33 0.33 0.0 0 1 146.60 131.35
  L 143.46 131.58
  A 0.33 0.33 0.0 0 1 143.23 131.50
  L 130.96 121.19
  A 0.33 0.33 0.0 0 1 130.84 120.96
  L 130.65 117.92
  A 0.33 0.33 0.0 0 1 130.95 117.57
  L 134.04 117.26
  A 0.33 0.33 0.0 0 1 134.29 117.34
  L 146.53 127.63
  A 0.33 0.33 0.0 0 1 146.65 127.86
  Z"
/>
<path fill="#a653f6" d="
  M 571.82 117.93
  L 571.63 120.99
  A 0.34 0.34 0.0 0 1 571.51 121.23
  L 559.26 131.51
  A 0.34 0.34 0.0 0 1 559.01 131.59
  L 555.88 131.34
  A 0.34 0.34 0.0 0 1 555.57 130.97
  L 555.85 127.86
  A 0.34 0.34 0.0 0 1 555.97 127.63
  L 568.25 117.33
  A 0.34 0.34 0.0 0 1 568.50 117.26
  L 571.52 117.58
  A 0.34 0.34 0.0 0 1 571.82 117.93
  Z"
/>
<path fill="#a653f6" d="
  M 103.43 162.58
  Q 101.93 161.71 102.13 159.03
  Q 102.16 158.62 102.55 158.52
  L 104.75 157.93
  Q 105.28 157.78 105.76 158.06
  L 118.86 165.62
  A 1.36 1.36 0.0 0 1 119.51 166.48
  L 120.13 168.88
  Q 120.26 169.39 119.75 169.52
  L 117.25 170.18
  Q 116.77 170.30 116.34 170.05
  Q 109.89 166.30 103.43 162.58
  Z"
/>
<path fill="#a653f6" d="
  M 584.93 164.92
  Q 590.83 161.49 596.76 158.04
  Q 597.22 157.77 597.73 157.91
  L 600.07 158.55
  Q 600.69 158.72 600.52 159.34
  L 599.87 161.75
  A 1.19 1.15 -8.6 0 1 599.32 162.47
  L 586.14 170.05
  Q 585.65 170.33 585.10 170.18
  L 582.95 169.56
  Q 582.39 169.41 582.39 168.83
  Q 582.41 166.38 584.93 164.92
  Z"
/>
<path fill="#a653f6" d="
  M 99.18 208.37
  L 100.50 211.23
  A 0.32 0.32 0.0 0 1 100.35 211.65
  L 97.63 212.99
  A 0.32 0.32 0.0 0 1 97.38 213.00
  L 82.22 207.53
  A 0.32 0.32 0.0 0 1 82.03 207.36
  L 80.71 204.52
  A 0.32 0.32 0.0 0 1 80.87 204.09
  L 83.69 202.75
  A 0.32 0.32 0.0 0 1 83.94 202.74
  L 98.99 208.20
  A 0.32 0.32 0.0 0 1 99.18 208.37
  Z"
/>
<path fill="#a653f6" d="
  M 606.10 212.68
  C 604.89 213.12 603.29 212.38 602.32 211.65
  Q 601.92 211.35 602.13 210.90
  L 603.12 208.77
  Q 603.35 208.27 603.87 208.08
  L 618.19 202.88
  Q 618.67 202.70 619.14 202.91
  L 621.28 203.89
  Q 621.93 204.19 621.63 204.84
  L 620.64 206.96
  Q 620.41 207.45 619.91 207.63
  Q 613.01 210.20 606.10 212.68
  Z"
/>
<circle fill="#a653f6" cx="322.16" cy="221.58" r="7.87"/>
<circle fill="#a653f6" cx="387.83" cy="221.57" r="7.87"/>
<path fill="#a653f6" d="
  M 322.62 237.42
  Q 334.57 225.04 351.99 224.50
  Q 352.51 224.48 352.51 225.00
  L 352.51 232.20
  Q 352.51 232.64 352.11 232.83
  C 341.88 237.57 334.36 245.15 333.56 256.96
  C 332.65 270.29 340.33 279.04 352.01 284.69
  Q 352.51 284.94 352.51 285.49
  L 352.51 292.49
  Q 352.51 293.11 351.89 293.09
  Q 334.59 292.46 322.61 280.19
  Q 322.16 279.73 321.72 280.19
  Q 309.75 292.51 292.40 293.09
  Q 291.80 293.11 291.80 292.51
  L 291.80 285.51
  Q 291.80 285.06 292.20 284.85
  C 303.84 279.02 311.69 270.57 310.77 256.77
  C 310.01 245.38 302.63 237.71 292.32 232.85
  Q 291.79 232.60 291.79 232.02
  L 291.80 225.04
  Q 291.80 224.48 292.37 224.49
  Q 309.77 225.08 321.76 237.42
  Q 322.19 237.86 322.62 237.42
  Z"
/>
<path fill="#a653f6" d="
  M 387.46 280.12
  Q 375.49 292.48 358.10 293.08
  Q 357.50 293.11 357.50 292.50
  L 357.49 285.27
  Q 357.49 284.80 357.93 284.61
  C 369.94 279.36 377.49 269.57 376.45 256.50
  C 375.55 245.10 367.87 237.36 357.87 232.82
  A 0.65 0.64 -78.1 0 1 357.49 232.23
  L 357.50 225.00
  Q 357.50 224.48 358.01 224.50
  Q 375.42 225.04 387.42 237.43
  Q 387.81 237.83 388.22 237.45
  C 396.72 229.44 405.28 224.81 417.77 224.59
  Q 418.21 224.58 418.20 225.02
  L 418.20 232.03
  Q 418.20 232.64 417.65 232.91
  C 405.65 238.72 397.67 248.13 399.34 261.95
  C 400.71 273.27 407.98 280.03 417.76 284.79
  Q 418.21 285.00 418.21 285.50
  L 418.20 292.48
  Q 418.20 293.10 417.58 293.08
  Q 400.20 292.47 388.23 280.13
  Q 387.85 279.73 387.46 280.12
  Z"
/>
<path fill="#a653f6" d="
  M 68.81 254.66
  Q 68.34 253.98 67.93 253.17
  Q 67.68 252.69 68.12 252.38
  L 70.19 250.90
  A 1.12 1.09 -57.1 0 1 71.02 250.71
  L 86.05 253.40
  Q 86.59 253.49 86.89 253.94
  L 88.25 255.96
  Q 88.59 256.46 88.09 256.80
  L 86.15 258.14
  A 1.47 1.47 0.0 0 1 85.08 258.37
  Q 77.68 257.05 70.28 255.78
  C 69.64 255.67 69.16 255.15 68.81 254.66
  Z"
/>
<path fill="#a653f6" d="
  M 614.13 256.08
  L 615.82 253.62
  A 0.39 0.39 0.0 0 1 616.07 253.45
  L 631.80 250.70
  A 0.39 0.39 0.0 0 1 632.08 250.76
  L 634.61 252.46
  A 0.39 0.39 0.0 0 1 634.71 253.01
  L 632.94 255.53
  A 0.39 0.39 0.0 0 1 632.69 255.69
  L 616.98 258.47
  A 0.39 0.39 0.0 0 1 616.69 258.40
  L 614.23 256.61
  A 0.39 0.39 0.0 0 1 614.13 256.08
  Z"
/>
<path fill="#a653f6" d="
  M 65.80 300.24
  L 81.92 300.24
  A 0.34 0.34 0.0 0 1 82.16 300.34
  L 84.32 302.47
  A 0.34 0.34 0.0 0 1 84.32 302.95
  L 82.19 305.15
  A 0.34 0.34 0.0 0 1 81.95 305.25
  L 65.82 305.25
  A 0.34 0.34 0.0 0 1 65.58 305.15
  L 63.46 302.96
  A 0.34 0.34 0.0 0 1 63.46 302.48
  L 65.56 300.34
  A 0.34 0.34 0.0 0 1 65.80 300.24
  Z"
/>
<path fill="#a653f6" d="
  M 618.20 302.46
  L 620.31 300.34
  A 0.34 0.34 0.0 0 1 620.55 300.24
  L 636.65 300.24
  A 0.34 0.34 0.0 0 1 636.89 300.34
  L 639.07 302.48
  A 0.34 0.34 0.0 0 1 639.07 302.96
  L 636.87 305.15
  A 0.34 0.34 0.0 0 1 636.63 305.25
  L 620.58 305.25
  A 0.34 0.34 0.0 0 1 620.34 305.15
  L 618.19 302.94
  A 0.34 0.34 0.0 0 1 618.20 302.46
  Z"
/>
<path fill="#a653f6" d="
  M 352.79 314.19
  C 359.32 312.46 366.96 309.32 369.74 303.14
  Q 369.95 302.67 370.46 302.72
  C 378.88 303.59 385.02 317.14 393.89 313.08
  Q 399.45 310.54 404.19 306.70
  Q 404.55 306.41 404.98 306.58
  Q 415.60 310.79 423.75 303.05
  Q 424.16 302.66 424.15 303.22
  C 423.52 330.99 409.68 358.74 384.78 371.88
  C 365.93 381.83 344.24 381.93 325.32 371.92
  C 300.60 358.83 286.30 330.91 285.80 303.69
  Q 285.78 302.84 286.24 303.55
  C 290.38 310.02 296.39 317.57 304.62 310.61
  Q 305.10 310.21 305.59 310.61
  C 313.37 317.13 320.93 313.19 325.99 305.43
  A 0.58 0.57 34.0 0 1 326.80 305.28
  C 333.64 310.06 343.96 307.95 351.94 314.02
  Q 352.33 314.32 352.79 314.19
  Z"
/>
<path fill="#a653f6" d="
  M 72.66 354.52
  Q 69.90 355.17 68.10 352.96
  Q 67.74 352.52 68.07 352.06
  L 69.35 350.23
  Q 69.65 349.81 70.16 349.72
  L 85.24 347.10
  A 1.22 1.21 58.0 0 1 86.17 347.32
  L 88.01 348.65
  Q 88.57 349.05 88.18 349.62
  L 86.87 351.54
  Q 86.58 351.96 86.07 352.05
  C 81.63 352.90 77.04 353.50 72.66 354.52
  Z"
/>
<path fill="#a653f6" d="
  M 614.23 348.85
  L 616.70 347.03
  A 0.39 0.39 0.0 0 1 617.00 346.96
  L 632.68 349.75
  A 0.39 0.39 0.0 0 1 632.93 349.91
  L 634.70 352.43
  A 0.39 0.39 0.0 0 1 634.61 352.97
  L 632.13 354.70
  A 0.39 0.39 0.0 0 1 631.84 354.76
  L 616.11 352.00
  A 0.39 0.39 0.0 0 1 615.86 351.84
  L 614.14 349.39
  A 0.39 0.39 0.0 0 1 614.23 348.85
  Z"
/>
<path fill="#a653f6" d="
  M 82.21 397.97
  L 97.25 392.49
  A 0.34 0.34 0.0 0 1 97.51 392.50
  L 100.34 393.82
  A 0.34 0.34 0.0 0 1 100.50 394.27
  L 99.16 397.10
  A 0.34 0.34 0.0 0 1 98.97 397.28
  L 83.95 402.73
  A 0.34 0.34 0.0 0 1 83.69 402.72
  L 80.89 401.40
  A 0.34 0.34 0.0 0 1 80.72 400.95
  L 82.02 398.15
  A 0.34 0.34 0.0 0 1 82.21 397.97
  Z"
/>
<path fill="#a653f6" d="
  M 621.57 401.44
  L 618.77 402.69
  A 0.39 0.39 0.0 0 1 618.48 402.70
  L 603.52 397.24
  A 0.39 0.39 0.0 0 1 603.30 397.03
  L 602.04 394.31
  A 0.39 0.39 0.0 0 1 602.22 393.79
  L 604.93 392.48
  A 0.39 0.39 0.0 0 1 605.23 392.47
  L 620.25 397.89
  A 0.39 0.39 0.0 0 1 620.47 398.10
  L 621.77 400.92
  A 0.39 0.39 0.0 0 1 621.57 401.44
  Z"
/>
<path fill="#a653f6" d="
  M 455.83 476.70
  L 455.63 459.36
  Q 455.62 457.80 457.15 458.10
  L 458.94 458.44
  Q 460.55 458.76 460.53 460.39
  Q 460.31 487.60 460.51 497.50
  Q 460.59 501.48 462.45 504.82
  Q 463.55 506.81 461.78 508.24
  L 461.36 508.57
  Q 459.43 510.13 458.28 507.94
  Q 456.56 504.68 456.18 500.98
  Q 456.02 499.38 455.29 500.81
  C 448.92 513.37 431.19 513.00 430.30 496.43
  Q 429.71 485.48 437.63 478.29
  C 443.02 473.41 449.59 472.07 455.42 476.90
  Q 455.84 477.24 455.83 476.70
  Z
  M 435.16 492.88
  C 434.33 500.19 437.59 509.23 446.79 503.76
  Q 453.01 500.06 455.09 493.46
  C 456.15 490.10 455.76 485.69 455.82 481.93
  A 0.36 0.35 8.2 0 0 455.55 481.58
  Q 455.09 481.47 454.66 481.26
  A 1.43 1.30 77.6 0 1 454.28 480.99
  C 445.46 471.93 436.13 484.24 435.16 492.88
  Z"
/>
<path fill="#a653f6" d="
  M 386.23 468.02
  L 386.31 508.01
  Q 386.32 509.38 384.97 509.11
  L 382.77 508.65
  Q 381.28 508.34 381.30 506.82
  Q 381.55 486.79 381.58 466.25
  Q 381.59 463.23 380.95 460.72
  A 1.36 1.35 66.8 0 1 381.53 459.26
  Q 383.47 458.02 385.78 458.22
  A 1.21 1.20 76.8 0 1 386.72 458.81
  Q 399.22 480.05 413.42 500.19
  Q 414.04 501.07 414.03 499.99
  L 413.93 459.49
  Q 413.92 458.13 415.27 458.36
  L 417.45 458.74
  Q 419.02 459.02 419.00 460.61
  Q 418.70 482.53 419.01 504.87
  Q 419.03 506.88 418.18 507.86
  C 416.87 509.39 414.09 509.80 412.77 507.93
  Q 398.95 488.33 386.72 467.89
  A 0.26 0.26 0.0 0 0 386.23 468.02
  Z"
/>
<path fill="#a653f6" d="
  M 286.73 478.24
  L 283.05 478.52
  A 2.15 2.14 -12.9 0 1 280.89 477.17
  L 280.53 476.28
  Q 279.83 474.53 281.72 474.53
  L 286.80 474.53
  Q 287.39 474.53 287.38 473.94
  L 287.23 464.20
  Q 287.20 462.30 289.06 462.67
  L 290.45 462.94
  Q 292.30 463.31 292.26 465.19
  L 292.10 473.72
  Q 292.09 474.36 292.73 474.32
  L 298.93 473.89
  Q 300.84 473.77 301.51 475.56
  L 301.69 476.06
  Q 302.37 477.88 300.43 477.90
  L 292.69 478.01
  Q 292.12 478.01 292.12 478.59
  L 292.16 502.95
  A 2.09 2.08 2.7 0 0 294.05 505.02
  C 297.15 505.30 300.19 503.00 302.68 501.34
  A 0.76 0.76 0.0 0 1 303.77 501.61
  Q 304.03 502.09 303.67 502.74
  C 301.32 506.89 295.32 511.60 290.55 508.73
  C 287.50 506.89 287.27 502.82 287.34 499.51
  Q 287.54 491.16 287.28 478.73
  Q 287.27 478.20 286.73 478.24
  Z"
/>
<path fill="#a653f6" d="
  M 172.92 494.95
  C 172.56 501.75 176.67 505.85 183.49 505.38
  Q 191.47 504.84 197.19 498.48
  A 0.54 0.54 0.0 0 1 197.95 498.44
  L 198.20 498.67
  A 1.09 1.09 0.0 0 1 198.38 500.04
  C 190.11 513.36 167.64 513.98 168.29 493.87
  Q 168.30 493.39 167.92 493.11
  Q 167.05 492.47 166.80 491.45
  A 0.77 0.76 78.5 0 1 167.42 490.51
  L 168.09 490.40
  Q 168.71 490.31 168.88 489.70
  C 171.50 480.64 179.42 472.22 189.51 474.13
  C 195.45 475.26 197.76 478.39 198.20 484.28
  Q 198.64 490.18 192.36 491.82
  Q 185.33 493.65 183.37 493.82
  Q 178.41 494.25 173.40 494.47
  Q 172.94 494.49 172.92 494.95
  Z
  M 187.73 477.95
  C 180.46 477.56 175.38 483.47 173.58 489.90
  Q 173.44 490.42 173.98 490.44
  Q 182.00 490.67 189.79 488.64
  C 196.34 486.93 193.91 478.28 187.73 477.95
  Z"
/>
<path fill="#a653f6" d="
  M 313.92 494.95
  C 313.55 501.59 317.51 505.77 324.24 505.38
  Q 332.11 504.92 338.00 498.72
  A 0.80 0.80 0.0 0 1 339.36 499.12
  Q 339.48 499.77 338.89 500.67
  Q 332.67 510.19 321.01 509.29
  Q 314.02 508.74 311.05 502.74
  Q 309.13 498.85 309.29 493.88
  Q 309.30 493.40 308.92 493.12
  Q 308.06 492.48 307.80 491.46
  A 0.77 0.76 78.3 0 1 308.42 490.51
  L 309.07 490.41
  Q 309.67 490.31 309.84 489.74
  C 311.87 482.84 316.98 476.22 323.94 474.27
  Q 329.38 472.75 334.53 475.43
  C 338.56 477.52 340.18 483.51 338.86 487.42
  Q 337.77 490.67 333.36 491.82
  Q 326.31 493.65 324.37 493.82
  Q 319.41 494.25 314.40 494.47
  Q 313.94 494.49 313.92 494.95
  Z
  M 328.73 477.95
  C 321.34 477.55 316.43 483.55 314.51 489.99
  Q 314.38 490.44 314.84 490.45
  Q 322.89 490.67 330.78 488.62
  C 337.36 486.92 334.89 478.28 328.73 477.95
  Z"
/>
<path fill="#a653f6" d="
  M 496.58 500.81
  Q 496.52 500.14 496.13 500.70
  C 492.50 505.96 488.68 509.58 482.02 509.50
  C 462.63 509.26 470.84 471.72 490.23 474.13
  Q 493.36 474.52 496.06 477.85
  Q 496.29 478.13 496.29 477.76
  L 496.27 475.06
  A 1.20 1.20 0.0 0 1 497.72 473.88
  L 500.48 474.48
  A 1.40 1.40 0.0 0 1 501.58 475.99
  Q 500.42 487.60 500.82 497.25
  Q 501.01 501.74 502.99 505.49
  A 2.12 2.12 0.0 0 1 502.42 508.15
  L 501.75 508.66
  Q 499.45 510.43 498.31 507.76
  Q 496.91 504.47 496.58 500.81
  Z
  M 494.32 481.47
  C 491.40 476.89 485.74 477.08 482.08 480.61
  Q 474.10 488.33 476.18 499.77
  Q 477.19 505.27 481.97 505.40
  C 487.54 505.55 492.66 500.57 494.45 495.49
  Q 496.55 489.55 496.13 482.25
  Q 496.10 481.73 495.58 481.82
  L 495.27 481.88
  Q 494.66 482.00 494.32 481.47
  Z"
/>
<path fill="#a653f6" d="
  M 230.94 477.48
  Q 231.70 478.63 231.71 477.25
  L 231.73 474.73
  A 0.89 0.89 0.0 0 1 232.80 473.86
  L 236.01 474.53
  A 1.22 1.22 0.0 0 1 236.98 475.85
  Q 236.32 482.07 236.19 494.49
  Q 236.12 501.12 238.56 506.06
  Q 238.80 506.54 238.56 507.01
  Q 237.97 508.19 236.80 508.87
  Q 235.21 509.80 234.10 508.32
  C 232.51 506.21 232.54 503.25 231.84 500.73
  Q 231.65 500.04 231.32 500.67
  C 228.52 505.94 223.66 509.49 217.59 509.50
  C 208.52 509.52 205.74 501.27 206.46 493.41
  C 207.21 485.20 213.07 475.97 221.47 474.15
  Q 227.86 472.76 230.94 477.48
  Z
  M 231.49 481.74
  Q 230.52 482.08 230.17 481.64
  Q 226.36 476.79 221.56 478.26
  C 213.93 480.60 210.45 490.68 211.32 497.93
  C 211.90 502.76 214.40 506.48 219.77 505.20
  C 230.03 502.73 231.71 490.57 231.61 481.82
  A 0.09 0.09 0.0 0 0 231.49 481.74
  Z"
/>
<path fill="#a653f6" d="
  M 257.29 478.65
  C 253.00 480.09 251.98 485.67 256.99 486.95
  C 263.05 488.51 272.75 489.24 274.88 496.53
  Q 276.07 500.61 273.71 504.20
  C 268.74 511.77 251.78 511.33 247.71 503.12
  A 2.40 2.40 0.0 0 1 248.10 500.43
  L 249.08 499.39
  Q 250.29 498.09 250.99 499.72
  C 253.61 505.78 261.82 506.86 266.74 504.57
  C 272.14 502.05 271.71 494.87 265.88 493.34
  C 260.55 491.94 251.22 491.38 249.24 485.07
  Q 248.27 481.98 249.95 479.48
  C 254.72 472.43 267.11 472.08 272.85 477.89
  Q 273.96 479.01 273.12 480.33
  L 272.46 481.38
  Q 271.58 482.78 270.50 481.53
  Q 265.61 475.86 257.29 478.65
  Z"
/>
<path fill="#a653f6" d="
  M 355.15 479.14
  C 358.76 474.05 364.98 472.41 370.50 475.25
  C 373.42 476.76 374.45 479.50 371.26 481.61
  A 0.88 0.87 55.7 0 1 370.06 481.38
  C 366.32 475.99 358.87 478.89 356.53 483.75
  C 353.63 489.78 354.59 501.15 355.04 507.67
  Q 355.15 509.39 353.47 509.04
  L 351.72 508.68
  Q 350.03 508.33 350.03 506.60
  L 349.98 475.11
  Q 349.98 473.64 351.41 473.99
  L 353.80 474.58
  A 1.56 1.54 9.7 0 1 354.98 476.23
  L 354.73 478.98
  Q 354.65 479.83 355.15 479.14
  Z"
/>
<path fill="#a653f6" d="
  M 525.50 499.02
  A 0.34 0.34 0.0 0 0 526.12 499.03
  L 537.28 475.02
  Q 538.04 473.39 539.62 474.26
  L 540.64 474.83
  Q 542.25 475.72 541.44 477.36
  Q 533.00 494.52 524.94 511.75
  C 522.41 517.15 520.40 520.90 513.51 519.71
  Q 510.26 519.15 509.36 518.36
  Q 508.06 517.22 508.89 515.71
  L 509.52 514.56
  Q 510.35 513.05 511.68 514.15
  C 518.03 519.43 521.33 509.36 523.02 505.50
  Q 523.25 504.96 523.01 504.42
  L 510.23 475.77
  Q 509.63 474.44 511.09 474.40
  L 513.39 474.32
  Q 514.93 474.28 515.54 475.70
  L 525.50 499.02
  Z"
/>
<rect fill="#a653f6" x="30.28" y="545.80" width="648.42" height="5.74" rx="2.86"/>
<circle fill="#a653f6" cx="214.97" cy="580.87" r="2.90"/>
<circle fill="#a653f6" cx="489.17" cy="580.87" r="2.91"/>
<circle fill="#a653f6" cx="224.07" cy="586.28" r="3.04"/>
<circle fill="#a653f6" cx="480.09" cy="586.28" r="3.03"/>
<circle fill="#a653f6" cx="233.61" cy="591.44" r="3.17"/>
<circle fill="#a653f6" cx="470.55" cy="591.44" r="3.16"/>
<circle fill="#a653f6" cx="243.59" cy="596.31" r="3.29"/>
<circle fill="#a653f6" cx="460.56" cy="596.31" r="3.30"/>
<circle fill="#a653f6" cx="254.03" cy="600.85" r="3.42"/>
<circle fill="#a653f6" cx="450.13" cy="600.85" r="3.42"/>
<circle fill="#a653f6" cx="264.90" cy="605.01" r="3.56"/>
<circle fill="#a653f6" cx="439.26" cy="605.01" r="3.56"/>
<circle fill="#a653f6" cx="276.20" cy="608.76" r="3.70"/>
<circle fill="#a653f6" cx="427.95" cy="608.75" r="3.69"/>
<path fill="#a653f6" d="
  M 348.74 613.92
  L 351.78 607.71
  A 0.33 0.33 0.0 0 1 352.38 607.71
  L 355.38 613.84
  A 0.33 0.33 0.0 0 0 355.63 614.03
  L 362.53 615.05
  A 0.33 0.33 0.0 0 1 362.71 615.62
  L 357.73 620.42
  A 0.33 0.33 0.0 0 0 357.63 620.71
  L 358.79 627.47
  A 0.33 0.33 0.0 0 1 358.31 627.81
  L 352.32 624.62
  A 0.33 0.33 0.0 0 0 352.02 624.62
  L 345.82 627.86
  A 0.33 0.33 0.0 0 1 345.35 627.51
  L 346.54 620.69
  A 0.33 0.33 0.0 0 0 346.44 620.40
  L 341.52 615.65
  A 0.33 0.33 0.0 0 1 341.71 615.08
  L 348.49 614.10
  A 0.33 0.33 0.0 0 0 348.74 613.92
  Z"
/>
<circle fill="#a653f6" cx="287.93" cy="612.04" r="3.83"/>
<circle fill="#a653f6" cx="416.24" cy="612.03" r="3.82"/>
<circle fill="#a653f6" cx="300.04" cy="614.83" r="3.97"/>
<circle fill="#a653f6" cx="404.12" cy="614.83" r="3.97"/>
<circle fill="#a653f6" cx="312.54" cy="617.05" r="4.10"/>
<circle fill="#a653f6" cx="391.61" cy="617.05" r="4.11"/>
<circle fill="#a653f6" cx="325.40" cy="618.70" r="4.24"/>
<circle fill="#a653f6" cx="378.75" cy="618.69" r="4.24"/>
</svg>
