<?xml version="1.0" encoding="UTF-8" standalone="no" ?>
<!DOCTYPE svg PUBLIC "-//W3C//DTD SVG 1.1//EN" "http://www.w3.org/Graphics/SVG/1.1/DTD/svg11.dtd">
<svg xmlns="http://www.w3.org/2000/svg" xmlns:xlink="http://www.w3.org/1999/xlink" version="1.1" width="800" height="400" viewBox="0 0 800 400" xml:space="preserve">
<desc>Created with Fabric.js 3.6.6</desc>
<defs>
</defs>
<g transform="matrix(1 0 0 1 104.5 144.5)"  >
<g style=""   >
</g>
</g>
<g transform="matrix(1.79 0 0 1.79 400.14 187.5)"  >
<g style=""   >
		<g transform="matrix(1 0 0 1 12.98 -98.09)"  >
<line style="stroke: rgb(0,0,0); stroke-width: 2; stroke-dasharray: none; stroke-linecap: butt; stroke-dashoffset: 0; stroke-linejoin: miter; stroke-miterlimit: 4; fill: rgb(0,0,0); fill-rule: nonzero; opacity: 1;"  x1="0" y1="0" x2="0" y2="0" />
</g>
		<g transform="matrix(1 0 0 1 -82.42 -65.59)"  >
<path style="stroke: rgb(152,153,152); stroke-width: 2; stroke-dasharray: none; stroke-linecap: butt; stroke-dashoffset: 0; stroke-linejoin: miter; stroke-miterlimit: 4; fill: none; fill-rule: nonzero; opacity: 1;" vector-effect="non-scaling-stroke"  transform=" translate(-112.1, -57)" d="M 97.34 48.26 L 91.58 58.93 Q 91.26 59.53 91.94 59.53 L 110.01 59.52 Q 110.49 59.52 110.49 60.01 L 110.49 71 Q 110.49 71.49 110 71.49 L 104.27 71.49 Q 103.71 71.49 103.95 71.99 L 104.68 73.49 A 0.89 0.88 77.3 0 0 105.48 74 L 116.31 74 Q 116.87 74 116.87 73.44 L 116.85 59.96 A 0.44 0.43 0 0 1 117.29 59.53 L 132.3 59.53 Q 132.85 59.53 133.14 59.07 L 134.09 57.57 A 0.39 0.39 0 0 0 133.76 56.97 L 117.54 56.97 Q 116.86 56.97 116.85 56.29 L 116.84 50.25 Q 116.84 49.66 116.25 49.66 L 111.04 49.66 Q 110.49 49.66 110.49 50.21 L 110.49 56.49 Q 110.49 56.97 110.01 56.97 L 99.75 56.98 Q 99.03 56.98 99.37 56.34 L 103.83 48.07 Q 104.07 47.62 104.58 47.62 Q 119.13 47.63 133.69 47.62 C 135 47.62 135.76 46.76 135.94 45.57 Q 136.02 45.02 135.47 45.02 L 106.26 45.03 A 0.46 0.45 14.8 0 1 105.86 44.35 L 107.94 40.76 Q 108.38 40 107.51 40 L 102.54 40 Q 101.91 40 101.62 40.54 L 99.36 44.65 Q 99.15 45.03 98.72 45.03 L 88.73 45.02 A 0.5 0.49 -0.6 0 0 88.23 45.52 L 88.25 47.07 Q 88.26 47.63 88.82 47.63 L 96.96 47.63 Q 97.68 47.62 97.34 48.26" stroke-linecap="round" />
</g>
		<g transform="matrix(1 0 0 1 -27.08 -65.59)"  >
<path style="stroke: rgb(152,153,152); stroke-width: 2; stroke-dasharray: none; stroke-linecap: butt; stroke-dashoffset: 0; stroke-linejoin: miter; stroke-miterlimit: 4; fill: none; fill-rule: nonzero; opacity: 1;" vector-effect="non-scaling-stroke"  transform=" translate(-167.44, -57)" d="M 156.48 48.52 L 188.05 48.52 Q 188.6 48.52 188.87 48.05 L 189.65 46.68 A 0.47 0.46 -75 0 0 189.25 45.98 L 172.81 45.97 Q 172.31 45.97 172.12 45.5 L 170.26 40.71 Q 169.98 40 169.22 40 L 164.29 40 A 0.42 0.42 0 0 0 163.9 40.58 L 165.86 45.47 A 0.37 0.37 0 0 1 165.52 45.98 L 147.13 45.98 A 0.63 0.62 -0.9 0 0 146.5 46.62 L 146.53 47.92 Q 146.54 48.55 147.17 48.54 L 149.21 48.51 Q 149.72 48.51 149.72 49.01 Q 149.73 56.44 149.72 63.9 C 149.71 67.33 147.12 70.52 145.41 73.37 Q 145.04 74 145.77 74 L 150.93 74 Q 151.36 74 151.57 73.63 Q 153.17 70.91 154.79 68.14 C 156.73 64.81 156.01 59.99 155.96 56.25 Q 155.96 55.71 156.5 55.71 L 178.86 55.72 Q 179.49 55.72 179.77 55.15 L 180.29 54.09 A 0.32 0.32 0 0 1 180.89 54.23 L 180.86 70.77 Q 180.86 71.35 180.28 71.35 L 168.23 71.35 Q 167.62 71.35 167.9 71.89 L 168.77 73.54 A 0.86 0.86 0 0 0 169.53 74 L 186.7 74 Q 187.16 74 187.16 73.54 L 187.16 53.47 A 0.44 0.44 0 0 0 186.72 53.03 L 156.5 53.03 Q 155.97 53.03 155.97 52.5 L 155.98 49.02 Q 155.99 48.52 156.48 48.52" stroke-linecap="round" />
</g>
		<g transform="matrix(1 0 0 1 -81.31 -82.07)"  >
<path style="stroke: rgb(137,204,131); stroke-width: 2; stroke-dasharray: none; stroke-linecap: butt; stroke-dashoffset: 0; stroke-linejoin: miter; stroke-miterlimit: 4; fill: none; fill-rule: nonzero; opacity: 1;" vector-effect="non-scaling-stroke"  transform=" translate(-113.21, -40.52)" d="M 114.3099 40.5027 A 1.1 0.38 -0.9 0 0 113.204 40.14 A 1.1 0.38 -0.9 0 0 112.1101 40.5373 A 1.1 0.38 -0.9 0 0 113.216 40.9 A 1.1 0.38 -0.9 0 0 114.3099 40.5027" stroke-linecap="round" />
</g>
		<g transform="matrix(1 0 0 1 -18.77 -81.45)"  >
<path style="stroke: rgb(137,204,131); stroke-width: 2; stroke-dasharray: none; stroke-linecap: butt; stroke-dashoffset: 0; stroke-linejoin: miter; stroke-miterlimit: 4; fill: none; fill-rule: nonzero; opacity: 1;" vector-effect="non-scaling-stroke"  transform=" translate(-175.75, -41.14)" d="M 177.1858 41.6969 A 1.54 0.77 21.2 0 0 176.0285 40.4221 A 1.54 0.77 21.2 0 0 174.3142 40.5831 A 1.54 0.77 21.2 0 0 175.4715 41.8579 A 1.54 0.77 21.2 0 0 177.1858 41.6969" stroke-linecap="round" />
</g>
		<g transform="matrix(1 0 0 1 26 -79.33)"  >
<path style="stroke: rgb(137,204,131); stroke-width: 2; stroke-dasharray: none; stroke-linecap: butt; stroke-dashoffset: 0; stroke-linejoin: miter; stroke-miterlimit: 4; fill: none; fill-rule: nonzero; opacity: 1;" vector-effect="non-scaling-stroke"  transform=" translate(-220.52, -43.26)" d="M 218.48 41.46 C 221.04 42.52 221.02 43 222.37 45.01 Q 222.65 45.43 222.62 44.93 C 222.52 42.92 220.53 41.08 218.52 41.21 A 0.13 0.13 0 0 0 218.48 41.46" stroke-linecap="round" />
</g>
		<g transform="matrix(1 0 0 1 47.66 -79.46)"  >
<path style="stroke: rgb(137,204,131); stroke-width: 2; stroke-dasharray: none; stroke-linecap: butt; stroke-dashoffset: 0; stroke-linejoin: miter; stroke-miterlimit: 4; fill: none; fill-rule: nonzero; opacity: 1;" vector-effect="non-scaling-stroke"  transform=" translate(-242.18, -43.12)" d="M 240.32 41.66 C 242.18 42.82 242.93 42.64 243.75 45.03 A 0.22 0.22 0 0 0 244.18 45 C 244.54 43.13 242.08 41.43 240.56 41.07 A 0.32 0.32 0 0 0 240.32 41.66" stroke-linecap="round" />
</g>
		<g transform="matrix(1 0 0 1 82.94 -65.34)"  >
<path style="stroke: rgb(152,153,152); stroke-width: 2; stroke-dasharray: none; stroke-linecap: butt; stroke-dashoffset: 0; stroke-linejoin: miter; stroke-miterlimit: 4; fill: none; fill-rule: nonzero; opacity: 1;" vector-effect="non-scaling-stroke"  transform=" translate(-277.46, -57.24)" d="M 265.67 55.98 A 0.31 0.31 0 0 1 265.93 56.46 L 255.46 73.01 A 0.31 0.31 0 0 0 255.72 73.49 L 262.65 73.48 A 0.31 0.31 0 0 0 262.91 73.34 L 273.8 56.12 A 0.31 0.31 0 0 1 274.06 55.98 L 298.99 55.98 A 0.31 0.31 0 0 0 299.27 55.79 L 300.48 52.99 A 0.31 0.31 0 0 0 300.2 52.56 L 276.63 52.56 A 0.31 0.31 0 0 1 276.36 52.09 L 281.02 44.55 A 0.31 0.31 0 0 1 281.28 44.4 L 297.49 44.41 A 0.31 0.31 0 0 0 297.77 44.22 L 299 41.43 A 0.31 0.31 0 0 0 298.71 41 L 255.79 41 A 0.31 0.31 0 0 0 255.48 41.31 L 255.49 44.09 A 0.31 0.31 0 0 0 255.8 44.4 L 272.94 44.42 A 0.31 0.31 0 0 1 273.2 44.89 L 268.51 52.41 A 0.31 0.31 0 0 1 268.25 52.56 L 254.76 52.56 A 0.31 0.31 0 0 0 254.45 52.87 L 254.42 55.67 A 0.31 0.31 0 0 0 254.73 55.98 L 265.67 55.98" stroke-linecap="round" />
</g>
		<g transform="matrix(1 0 0 1 100.89 -76.47)"  >
<path style="stroke: rgb(137,204,131); stroke-width: 2; stroke-dasharray: none; stroke-linecap: butt; stroke-dashoffset: 0; stroke-linejoin: miter; stroke-miterlimit: 4; fill: none; fill-rule: nonzero; opacity: 1;" vector-effect="non-scaling-stroke"  transform=" translate(-295.41, -46.11)" d="M 306.87 43.63 Q 306.44 41.29 303.61 41.17 Q 303.15 41.16 303.02 41.6 C 302.35 43.88 301.07 48.29 298.25 48.28 Q 290.96 48.25 283.67 48.29 Q 283.58 48.29 283.58 48.38 L 283.59 48.66 Q 283.59 48.71 283.65 48.71 Q 292.45 48.64 301.25 48.77 Q 303.07 48.8 304.19 50.74 Q 304.43 51.16 304.72 50.78 Q 307.53 47.16 306.87 43.63" stroke-linecap="round" />
</g>
		<g transform="matrix(1 0 0 1 44.97 -70.68)"  >
<path style="stroke: rgb(152,153,152); stroke-width: 2; stroke-dasharray: none; stroke-linecap: butt; stroke-dashoffset: 0; stroke-linejoin: miter; stroke-miterlimit: 4; fill: none; fill-rule: nonzero; opacity: 1;" vector-effect="non-scaling-stroke"  transform=" translate(-239.49, -51.91)" d="M 233.83 45.94 L 238.95 57.49 Q 239.17 58 239.73 58 L 244.6 58 Q 245.25 58 244.98 57.41 L 240.01 46.39 Q 239.75 45.8 239.11 45.82 L 233.83 45.94" stroke-linecap="round" />
</g>
		<g transform="matrix(1 0 0 1 23.38 -72.95)"  >
<path style="stroke: rgb(152,153,152); stroke-width: 2; stroke-dasharray: none; stroke-linecap: butt; stroke-dashoffset: 0; stroke-linejoin: miter; stroke-miterlimit: 4; fill: none; fill-rule: nonzero; opacity: 1;" vector-effect="non-scaling-stroke"  transform=" translate(-217.9, -49.64)" d="M 233.83 45.94 L 235.88 41.89 Q 236.19 41.27 235.5 41.27 L 230.22 41.29 A 0.89 0.87 -75.9 0 0 229.44 41.77 L 222.8 54.76 Q 222.47 55.41 222.18 54.74 L 218.41 46.21 Q 218.2 45.75 217.7 45.75 L 212.98 45.72 Q 212.36 45.72 212.64 45.16 L 214.32 41.93 Q 214.65 41.29 213.93 41.29 L 208.54 41.28 Q 208.13 41.28 207.94 41.65 L 199.91 57.42 Q 199.62 57.99 200.26 57.99 L 205.5 58 Q 206.12 58 206.41 57.44 L 211.8 46.74 Q 212.18 45.98 212.52 46.75 L 217.27 57.51 A 0.83 0.83 0 0 0 218.03 58 L 227.23 58 Q 227.68 58 227.88 57.6 L 233.83 45.94" stroke-linecap="round" />
</g>
		<g transform="matrix(1 0 0 1 -62.52 -72.33)"  >
<path style="stroke: rgb(137,204,131); stroke-width: 2; stroke-dasharray: none; stroke-linecap: butt; stroke-dashoffset: 0; stroke-linejoin: miter; stroke-miterlimit: 4; fill: none; fill-rule: nonzero; opacity: 1;" vector-effect="non-scaling-stroke"  transform=" translate(-132, -50.26)" d="M 137.64 50.49 A 2.8 2.8 0 0 1 135.48 51.51 L 121.13 51.53 A 0.49 0.48 78.4 0 0 120.69 52.2 Q 121.11 53.24 122.51 53.2 Q 128.11 53.02 133.74 53 C 135.82 52.99 136.88 53.73 138.1 55.25 A 0.99 0.98 -23.8 0 0 139.04 55.61 Q 142.22 55.06 143.22 51.96 Q 143.38 51.44 143.2 50.92 Q 142.4 48.62 142.5 46.16 A 1.21 1.21 0 0 0 140.13 45.76 Q 139.34 48.4 137.64 50.49" stroke-linecap="round" />
</g>
		<g transform="matrix(1 0 0 1 -11.25 -58.5)"  >
<path style="stroke: rgb(137,204,131); stroke-width: 2; stroke-dasharray: none; stroke-linecap: butt; stroke-dashoffset: 0; stroke-linejoin: miter; stroke-miterlimit: 4; fill: none; fill-rule: nonzero; opacity: 1;" vector-effect="non-scaling-stroke"  transform=" translate(-183.27, -64.08)" d="M 195.43 55.38 C 197.45 52.21 200.26 47.04 194.49 46.17 Q 194.03 46.11 193.89 46.55 Q 193.01 49.29 191.25 51.6 A 1.12 1.11 63.9 0 0 191.02 52.28 L 191 73.87 A 4.13 4.13 0 0 1 186.87 78 L 169.22 78.01 Q 168.53 78.01 168.76 78.66 C 169.59 80.91 170.97 81.95 173.53 81.97 Q 182.2 82.04 191.14 81.98 A 4.02 4.02 0 0 0 195.14 77.96 L 195.15 56.36 Q 195.15 55.83 195.43 55.38" stroke-linecap="round" />
</g>
		<g transform="matrix(1 0 0 1 32.1 -58.97)"  >
<path style="stroke: rgb(137,204,131); stroke-width: 2; stroke-dasharray: none; stroke-linecap: butt; stroke-dashoffset: 0; stroke-linejoin: miter; stroke-miterlimit: 4; fill: none; fill-rule: nonzero; opacity: 1;" vector-effect="non-scaling-stroke"  transform=" translate(-226.62, -63.62)" d="M 249.5 65.99 C 254.21 64.98 254.05 61.31 251.21 58.37 Q 250.85 58 250.76 57.51 C 250.36 55.46 248.11 46.27 244.84 45.97 Q 244.18 45.91 244.44 46.52 Q 246.36 51.05 248.38 55.57 Q 250.69 60.78 245.49 62 Q 244.93 62.13 245.16 62.66 Q 246.95 66.86 248.74 71.1 C 250.69 75.71 247.59 77.29 243.46 77.21 Q 227.87 76.92 212.26 76.98 C 210.65 76.99 209.04 76.02 206.96 76.96 A 0.4 0.35 30.1 0 1 206.81 76.99 L 200.27 77.01 Q 199.73 77.01 199.78 77.56 C 200.26 82.65 209.5 81.13 213.25 80.49 C 213.79 80.4 215.13 81.03 215.94 81.02 Q 232.6 80.86 249.25 81.27 Q 252.49 81.35 253.41 77.78 Q 253.52 77.31 253.17 76.98 L 251.76 75.66 A 1.23 1.22 -68.1 0 1 251.36 74.71 Q 251.45 70.43 249.16 66.79 A 0.53 0.53 0 0 1 249.5 65.99" stroke-linecap="round" />
</g>
		<g transform="matrix(1 0 0 1 66.31 -74.06)"  >
<path style="stroke: rgb(137,204,131); stroke-width: 2; stroke-dasharray: none; stroke-linecap: butt; stroke-dashoffset: 0; stroke-linejoin: miter; stroke-miterlimit: 4; fill: none; fill-rule: nonzero; opacity: 1;" vector-effect="non-scaling-stroke"  transform=" translate(-260.83, -48.53)" d="M 266.08 48.29 L 255.86 48.27 Q 255.47 48.27 255.65 48.61 Q 255.74 48.78 256 48.78 Q 261.02 48.72 266.05 48.68 Q 266.13 48.68 266.13 48.63 L 266.13 48.33 Q 266.13 48.29 266.08 48.29" stroke-linecap="round" />
</g>
		<g transform="matrix(1 0 0 1 -105.01 -69.58)"  >
<path style="stroke: rgb(137,204,131); stroke-width: 2; stroke-dasharray: none; stroke-linecap: butt; stroke-dashoffset: 0; stroke-linejoin: miter; stroke-miterlimit: 4; fill: none; fill-rule: nonzero; opacity: 1;" vector-effect="non-scaling-stroke"  transform=" translate(-89.51, -53.01)" d="M 90.79 52.13 A 0.43 0.43 0 0 0 90.4 51.5 L 88.6 51.53 A 0.43 0.43 0 0 0 88.2 52.1 L 88.9 54.21 A 0.43 0.43 0 0 0 89.7 54.27 L 90.79 52.13" stroke-linecap="round" />
</g>
		<g transform="matrix(1 0 0 1 105.67 -55.38)"  >
<path style="stroke: rgb(137,204,131); stroke-width: 2; stroke-dasharray: none; stroke-linecap: butt; stroke-dashoffset: 0; stroke-linejoin: miter; stroke-miterlimit: 4; fill: none; fill-rule: nonzero; opacity: 1;" vector-effect="non-scaling-stroke"  transform=" translate(-300.19, -67.2)" d="M 300.72 64.21 Q 307.04 64.33 308.26 57.71 Q 309.06 53.35 305.31 52.86 Q 304.78 52.79 304.61 53.3 C 303.24 57.63 302.47 59.87 296.91 60.19 Q 296.05 60.24 296.51 60.97 Q 299.35 65.39 302.37 70.28 C 307.57 78.7 296.6 77.57 292 77.48 Q 291.65 77.47 291.77 77.8 Q 293.13 81.65 296.47 81.56 C 301.12 81.44 311.67 82.68 306.21 73.81 Q 303.38 69.22 300.45 64.7 Q 300.13 64.2 300.72 64.21" stroke-linecap="round" />
</g>
		<g transform="matrix(1 0 0 1 38.9 -65.62)"  >
<path style="stroke: rgb(137,204,131); stroke-width: 2; stroke-dasharray: none; stroke-linecap: butt; stroke-dashoffset: 0; stroke-linejoin: miter; stroke-miterlimit: 4; fill: none; fill-rule: nonzero; opacity: 1;" vector-effect="non-scaling-stroke"  transform=" translate(-233.42, -56.97)" d="M 233 58 Q 233.94 58.14 234.48 57.52 A 1.04 1.04 0 0 0 233.05 56.02 Q 232.5 56.46 232.18 57.64 Q 232.04 58.16 232.58 58.13 Q 232.78 58.12 233 58" stroke-linecap="round" />
</g>
		<g transform="matrix(1 0 0 1 -59.47 -52.97)"  >
<path style="stroke: rgb(137,204,131); stroke-width: 2; stroke-dasharray: none; stroke-linecap: butt; stroke-dashoffset: 0; stroke-linejoin: miter; stroke-miterlimit: 4; fill: none; fill-rule: nonzero; opacity: 1;" vector-effect="non-scaling-stroke"  transform=" translate(-135.05, -69.62)" d="M 137.77 67.43 C 141.6 65.51 145.35 58.12 138.73 57.11 A 0.44 0.44 0 0 0 138.23 57.46 Q 137.39 61.74 133.57 63.55 Q 133.12 63.77 133.37 64.2 C 134.75 66.57 139.26 73.06 138.1 75.55 C 136.53 78.93 131.18 77.9 128.1 78.06 Q 127.54 78.09 127.73 78.61 C 128.54 80.84 129.82 81.89 132.32 81.99 C 135.93 82.13 141.58 82.9 142.41 78.38 Q 142.52 77.82 142.26 77.32 L 137.55 68.11 Q 137.32 67.65 137.77 67.43" stroke-linecap="round" />
</g>
		<g transform="matrix(1 0 0 1 96.26 -57.25)"  >
<path style="stroke: rgb(152,153,152); stroke-width: 2; stroke-dasharray: none; stroke-linecap: butt; stroke-dashoffset: 0; stroke-linejoin: miter; stroke-miterlimit: 4; fill: none; fill-rule: nonzero; opacity: 1;" vector-effect="non-scaling-stroke"  transform=" translate(-290.77, -65.34)" d="M 289.49 57.34 A 0.31 0.31 0 0 0 289.23 57.2 L 282.36 57.19 A 0.31 0.31 0 0 0 282.1 57.67 L 292 73.35 A 0.31 0.31 0 0 0 292.26 73.49 L 299.19 73.48 A 0.31 0.31 0 0 0 299.45 73 L 289.49 57.34" stroke-linecap="round" />
</g>
		<g transform="matrix(1 0 0 1 29.19 -56.42)"  >
<path style="stroke: rgb(152,153,152); stroke-width: 2; stroke-dasharray: none; stroke-linecap: butt; stroke-dashoffset: 0; stroke-linejoin: miter; stroke-miterlimit: 4; fill: none; fill-rule: nonzero; opacity: 1;" vector-effect="non-scaling-stroke"  transform=" translate(-223.71, -66.17)" d="M 218.55 70.74 A 0.42 0.42 0 0 1 218.13 70.32 L 218.14 59.67 A 0.42 0.42 0 0 0 217.72 59.25 L 212.17 59.25 A 0.42 0.42 0 0 0 211.75 59.67 L 211.75 72.66 A 0.42 0.42 0 0 0 212.17 73.08 L 235.25 73.08 A 0.42 0.42 0 0 0 235.67 72.65 L 235.65 71.14 A 0.42 0.42 0 0 0 235.23 70.73 L 218.55 70.74" stroke-linecap="round" />
</g>
		<g transform="matrix(1 0 0 1 -33.58 -51.64)"  >
<path style="stroke: rgb(137,204,131); stroke-width: 2; stroke-dasharray: none; stroke-linecap: butt; stroke-dashoffset: 0; stroke-linejoin: miter; stroke-miterlimit: 4; fill: none; fill-rule: nonzero; opacity: 1;" vector-effect="non-scaling-stroke"  transform=" translate(-160.94, -70.95)" d="M 164.49 63.77 L 176.29 63.78 Q 176.86 63.78 176.86 63.21 L 176.85 60.43 Q 176.85 59.77 176.19 59.77 L 160.42 59.78 Q 159.86 59.78 159.86 60.34 L 159.85 66.73 Q 159.85 67.27 159.57 67.75 L 154.56 76.34 A 3.35 3.33 15 0 1 151.7 77.98 L 145.54 78.02 Q 144.95 78.02 145.09 78.59 Q 145.81 81.71 149.29 81.9 C 151.98 82.05 156.86 82.86 158.6 80.13 C 162.05 74.73 164.14 71.9 163.94 64.35 Q 163.92 63.77 164.49 63.77" stroke-linecap="round" />
</g>
		<g transform="matrix(1 0 0 1 62.02 -60.93)"  >
<path style="stroke: rgb(137,204,131); stroke-width: 2; stroke-dasharray: none; stroke-linecap: butt; stroke-dashoffset: 0; stroke-linejoin: miter; stroke-miterlimit: 4; fill: none; fill-rule: nonzero; opacity: 1;" vector-effect="non-scaling-stroke"  transform=" translate(-256.54, -61.66)" d="M 258.3 61.11 L 258.58 60.83 A 0.46 0.46 0 0 0 258.26 60.04 L 255.04 60 Q 254.27 59.99 254.45 60.74 Q 254.82 62.28 256.12 63.2 A 0.67 0.66 -57.8 0 0 257.08 62.98 L 257.63 61.99 Q 257.9 61.51 258.3 61.11" stroke-linecap="round" />
</g>
		<g transform="matrix(1 0 0 1 73.79 -51.93)"  >
<path style="stroke: rgb(137,204,131); stroke-width: 2; stroke-dasharray: none; stroke-linecap: butt; stroke-dashoffset: 0; stroke-linejoin: miter; stroke-miterlimit: 4; fill: none; fill-rule: nonzero; opacity: 1;" vector-effect="non-scaling-stroke"  transform=" translate(-268.31, -70.65)" d="M 267.13 74.13 C 264.24 78.85 260.56 77.49 255.77 77.52 Q 255.29 77.52 255.33 78 C 255.73 82.79 264.58 81.68 267.62 81.34 A 3.2 3.17 -76.9 0 0 269.95 79.88 L 279.56 64.71 Q 279.85 64.26 280.33 64.03 L 280.78 63.81 Q 281.47 63.47 280.89 62.96 Q 280.03 62.2 279.65 61.12 A 2.26 2.26 0 0 0 275.63 60.63 Q 271.5 66.96 267.13 74.13" stroke-linecap="round" />
</g>
		<g transform="matrix(1 0 0 1 31.4 -58.21)"  >
<path style="stroke: rgb(152,153,152); stroke-width: 2; stroke-dasharray: none; stroke-linecap: butt; stroke-dashoffset: 0; stroke-linejoin: miter; stroke-miterlimit: 4; fill: none; fill-rule: nonzero; opacity: 1;" vector-effect="non-scaling-stroke"  transform=" translate(-225.92, -64.38)" d="M 224.35 67.73 A 0.38 0.38 0 0 0 224.69 67.94 L 230.41 67.92 A 0.38 0.38 0 0 0 230.75 67.37 L 227.53 61.07 A 0.38 0.38 0 0 0 227.2 60.86 L 221.43 60.81 A 0.38 0.38 0 0 0 221.09 61.36 L 224.35 67.73" stroke-linecap="round" />
</g>
		<g transform="matrix(1 0 0 1 -97.34 -54.65)"  >
<path style="stroke: rgb(152,153,152); stroke-width: 2; stroke-dasharray: none; stroke-linecap: butt; stroke-dashoffset: 0; stroke-linejoin: miter; stroke-miterlimit: 4; fill: none; fill-rule: nonzero; opacity: 1;" vector-effect="non-scaling-stroke"  transform=" translate(-97.17, -67.94)" d="M 90.95 73.49 A 0.33 0.33 0 0 0 91.24 73.98 L 96.83 73.97 A 0.33 0.33 0 0 0 97.11 73.8 L 103.4 62.43 A 0.33 0.33 0 0 0 103.11 61.94 L 97.51 61.9 A 0.33 0.33 0 0 0 97.22 62.07 L 90.95 73.49" stroke-linecap="round" />
</g>
		<g transform="matrix(1 0 0 1 10.73 -55.19)"  >
<path style="stroke: rgb(152,153,152); stroke-width: 2; stroke-dasharray: none; stroke-linecap: butt; stroke-dashoffset: 0; stroke-linejoin: miter; stroke-miterlimit: 4; fill: none; fill-rule: nonzero; opacity: 1;" vector-effect="non-scaling-stroke"  transform=" translate(-205.25, -67.4)" d="M 199.87 72.63 A 0.34 0.34 0 0 0 200.19 73.09 L 206.11 73.08 A 0.34 0.34 0 0 0 206.42 72.86 L 210.63 62.17 A 0.34 0.34 0 0 0 210.31 61.71 L 204.36 61.71 A 0.34 0.34 0 0 0 204.05 61.93 L 199.87 72.63" stroke-linecap="round" />
</g>
		<g transform="matrix(1 0 0 1 45.11 -55.09)"  >
<path style="stroke: rgb(152,153,152); stroke-width: 2; stroke-dasharray: none; stroke-linecap: butt; stroke-dashoffset: 0; stroke-linejoin: miter; stroke-miterlimit: 4; fill: none; fill-rule: nonzero; opacity: 1;" vector-effect="non-scaling-stroke"  transform=" translate(-239.63, -67.5)" d="M 238.77 73.04 A 0.31 0.31 0 0 0 239.05 73.23 L 244.93 73.22 A 0.31 0.31 0 0 0 245.22 72.79 L 240.58 61.97 A 0.31 0.31 0 0 0 240.3 61.78 L 234.33 61.76 A 0.31 0.31 0 0 0 234.05 62.2 L 238.77 73.04" stroke-linecap="round" />
</g>
		<g transform="matrix(1 0 0 1 -66.74 -54.66)"  >
<path style="stroke: rgb(152,153,152); stroke-width: 2; stroke-dasharray: none; stroke-linecap: butt; stroke-dashoffset: 0; stroke-linejoin: miter; stroke-miterlimit: 4; fill: none; fill-rule: nonzero; opacity: 1;" vector-effect="non-scaling-stroke"  transform=" translate(-127.78, -67.93)" d="M 127.9 73.82 A 0.3 0.3 0 0 0 128.16 73.97 L 133.88 73.97 A 0.3 0.3 0 0 0 134.15 73.52 L 127.66 62.1 A 0.3 0.3 0 0 0 127.4 61.95 L 121.67 61.89 A 0.3 0.3 0 0 0 121.41 62.34 L 127.9 73.82" stroke-linecap="round" />
</g>
		<g transform="matrix(1 0 0 1 -86.82 -46.51)"  >
<path style="stroke: rgb(137,204,131); stroke-width: 2; stroke-dasharray: none; stroke-linecap: butt; stroke-dashoffset: 0; stroke-linejoin: miter; stroke-miterlimit: 4; fill: none; fill-rule: nonzero; opacity: 1;" vector-effect="non-scaling-stroke"  transform=" translate(-107.7, -76.08)" d="M 105.35 79.71 C 107.62 83.15 114.67 82.07 120.74 81.94 Q 123.54 81.88 124.47 79.67 C 125.61 76.96 122.89 72.55 121.25 70.37 Q 120.82 69.79 120.8 70.51 L 120.69 75.11 Q 120.68 75.6 120.36 75.98 C 117.72 79.17 108.68 78.01 104.74 77.98 Q 102.63 77.97 101.28 75.49 A 0.36 0.36 0 0 0 100.64 75.49 C 98.67 79.12 94.48 77.85 91.17 78.07 Q 90.6 78.11 90.72 78.67 C 91.63 82.89 97.87 82.18 101.5 81.92 Q 103.2 81.8 104.6 79.71 Q 104.98 79.15 105.35 79.71" stroke-linecap="round" />
</g>
		<g transform="matrix(1 0 0 1 -77.86 11.41)"  >
<path style="stroke: rgb(232,211,175); stroke-width: 2; stroke-dasharray: none; stroke-linecap: butt; stroke-dashoffset: 0; stroke-linejoin: miter; stroke-miterlimit: 4; fill: none; fill-rule: nonzero; opacity: 1;" vector-effect="non-scaling-stroke"  transform=" translate(-116.66, -134)" d="M 167.26 159.28 Q 157.17 163.66 148.77 170.74 Q 148.4 171.06 147.91 171 Q 127.85 168.79 121.12 187.26 A 0.77 0.77 0 0 0 121.58 188.24 C 133.89 192.69 147.99 186.39 149.09 172.28 A 1 0.98 77.3 0 1 149.57 171.5 Q 162.72 163.62 176.84 157.72 C 180.71 156.11 185.15 155.4 189.32 154.24 A 1.53 1.51 12.8 0 0 190.06 153.78 L 190.31 153.49 Q 190.66 153.07 191.21 153.12 C 198.62 153.79 206.23 149.55 210.93 144.28 C 217.73 136.65 219.3 125.92 217.98 115.76 Q 215.63 97.59 200.69 89.31 C 190.01 83.4 178.8 92.09 173.33 101.1 Q 167.07 111.4 168.08 125.25 Q 169.56 145.68 188.46 152.53 Q 188.89 152.68 188.45 152.8 Q 169.01 158.2 148.83 157.64 C 146.96 157.58 143.39 155.89 141.78 155.05 Q 131.28 149.6 120.42 144.89 C 119.04 144.3 119.11 143.68 118.89 142.35 Q 116.07 125.46 97.71 120.84 Q 96.61 120.56 96.43 121.69 C 94.87 132.04 101.6 143.04 112.05 145.7 C 115.76 146.64 118.18 144.86 121.78 147.2 Q 129.94 152.47 139.53 156.64 A 0.09 0.09 0 0 1 139.49 156.81 C 122.8 154.53 108.19 148.66 91.42 141.28 Q 87.61 139.6 84.76 137.12 Q 78.07 131.31 72.21 124.43 Q 71.84 123.99 72.13 123.5 Q 82.47 106.1 69.13 91.27 Q 68.81 90.92 68.48 91.25 C 60.18 99.83 58.5 114.39 68.04 122.67 C 71.22 125.43 72.76 127.85 74.92 130.87 Q 76.25 132.74 74.37 131.42 Q 54.99 117.87 38.2 101.22 Q 37.82 100.84 37.75 100.31 Q 35.11 81.69 16.62 78.37 A 1.45 1.45 0 0 0 14.92 79.85 Q 15.4 94.55 26.64 101.53 C 29.87 103.53 33.74 103.05 37.44 103.11 A 1.36 1.36 0 0 1 38.39 103.52 Q 49.8 115.13 62.45 125.36 Q 63.27 126.03 62.23 125.88 Q 61.06 125.71 59.26 125 Q 56.13 123.78 48.91 123.98 A 1.5 1.48 63.8 0 1 47.9 123.63 Q 33.36 111.39 17.67 122.16 A 0.83 0.82 53.1 0 0 17.5 123.37 Q 19.48 125.74 21.78 127.73 C 29.61 134.51 42.27 135.19 48.93 126.27 Q 49.23 125.87 49.73 125.93 Q 58.07 126.92 65.81 129.89 Q 69.65 131.36 76.77 135.79 Q 93.49 146.18 112.08 152.28 A 0.3 0.3 0 0 1 111.96 152.87 Q 100.83 151.79 89.86 153.93 Q 89.31 154.04 88.89 153.68 Q 74.74 141.71 59.09 152.01 Q 58.23 152.58 58.8 153.44 C 66.08 164.27 82.31 166.88 90.67 155.63 Q 90.98 155.22 91.5 155.19 Q 111.03 154.19 130.09 157.51 Q 141.26 159.46 145.5 159.69 Q 156.35 160.28 167.15 158.89 Q 168.59 158.7 167.26 159.28" stroke-linecap="round" />
</g>
		<g transform="matrix(1 0 0 1 91.95 11.36)"  >
<path style="stroke: rgb(232,211,175); stroke-width: 2; stroke-dasharray: none; stroke-linecap: butt; stroke-dashoffset: 0; stroke-linejoin: miter; stroke-miterlimit: 4; fill: none; fill-rule: nonzero; opacity: 1;" vector-effect="non-scaling-stroke"  transform=" translate(-286.47, -133.95)" d="M 222.07 158.86 Q 232.59 160.31 243.12 159.75 Q 247.15 159.54 259.28 157.49 Q 278.53 154.24 298.13 155.2 Q 298.61 155.23 298.88 155.63 C 306.83 167.5 323.36 163.52 330.41 153.49 Q 331.06 152.56 330.11 151.94 Q 314.45 141.75 300.35 153.69 A 1.06 1.06 0 0 1 299.46 153.92 Q 288.56 151.81 277.5 152.94 A 0.3 0.3 0 0 1 277.35 152.36 Q 286.44 148.56 295.04 145.03 Q 301.26 142.48 305.63 139.87 Q 309.62 137.48 315.68 133.66 Q 325.83 127.26 339.7 126.12 Q 340.17 126.08 340.45 126.45 C 348.91 137.71 364.78 132.92 371.96 122.99 Q 372.28 122.54 371.83 122.22 Q 356.02 111.22 341.31 123.64 Q 340.96 123.94 340.5 123.92 Q 332.92 123.57 325.99 126.55 A 0.18 0.18 0 0 1 325.81 126.25 Q 338.98 115.57 350.88 103.47 A 1.04 1.01 24.3 0 1 351.72 103.17 C 365.95 104.63 375.24 92.18 374.01 78.75 Q 373.95 78.12 373.32 78.22 Q 354.11 81.26 351.47 100.57 Q 351.39 101.14 350.97 101.54 Q 333.58 118.31 313.82 132.23 A 0.16 0.16 0 0 1 313.59 132.01 Q 315.43 129.19 317.53 126.45 Q 318.26 125.51 321.93 121.98 C 330.54 113.72 329.03 99.19 320.75 91.27 Q 320.39 90.91 320.05 91.29 Q 306.82 106.24 317.17 123.57 Q 317.45 124.03 317.09 124.45 C 312.33 129.88 306.14 137.15 299.57 140.29 Q 282.57 148.39 264.49 153.74 Q 257.61 155.77 250.69 156.81 A 0.3 0.3 0 0 1 250.52 156.24 Q 260.48 151.79 269.68 145.92 A 1.21 1.15 33.1 0 1 270.54 145.76 C 284.72 148.51 294.09 134.11 292.96 121.57 Q 292.91 121.01 292.35 121.1 Q 272.8 124.26 270.08 143.84 Q 270.02 144.28 269.62 144.47 Q 256.96 150.42 244.33 156.43 Q 241.96 157.56 239.46 157.61 Q 220.02 157.98 201.21 152.97 Q 199.98 152.64 199.09 153.1 A 0.52 0.52 0 0 0 199.22 154.06 C 206.11 155.58 212.07 157.23 218.6 160.45 Q 228.2 165.17 237.69 170.09 C 239.28 170.91 239.99 171.22 240.22 173.17 C 241.78 186.36 255.77 192.81 267.32 188.28 Q 268.39 187.86 267.98 186.79 Q 261.01 168.82 241.28 171.04 Q 240.82 171.09 240.47 170.79 Q 232.13 163.57 221.97 159.24 A 0.2 0.2 0 0 1 222.07 158.86" stroke-linecap="round" />
</g>
		<g transform="matrix(1 0 0 1 40.76 2.93)"  >
<path style="stroke: rgb(232,211,175); stroke-width: 2; stroke-dasharray: none; stroke-linecap: butt; stroke-dashoffset: 0; stroke-linejoin: miter; stroke-miterlimit: 4; fill: none; fill-rule: nonzero; opacity: 1;" vector-effect="non-scaling-stroke"  transform=" translate(-235.28, -125.51)" d="M 254.08 132.81 C 258.25 122.21 257.75 107.53 247.73 100.71 C 238.61 94.5 226.3 100.35 219.47 107.96 Q 219.15 108.32 219.27 108.78 C 222.5 120.93 221.62 133.99 214.25 144.44 Q 213.93 144.9 214.25 145.35 Q 216.26 148.22 218.97 150.17 C 225.08 154.57 234.84 153.17 240.85 149.7 C 247.34 145.95 251.3 139.86 254.08 132.81" stroke-linecap="round" />
</g>
		<g transform="matrix(1 0 0 1 -40.77 3.48)"  >
<path style="stroke: rgb(232,211,175); stroke-width: 2; stroke-dasharray: none; stroke-linecap: butt; stroke-dashoffset: 0; stroke-linejoin: miter; stroke-miterlimit: 4; fill: none; fill-rule: nonzero; opacity: 1;" vector-effect="non-scaling-stroke"  transform=" translate(-153.75, -126.06)" d="M 174.24 146.42 C 164.31 135.91 163.62 119.35 168.36 106.29 Q 168.52 105.84 168.17 105.53 C 156.86 95.32 139.35 95.75 134.21 112.27 C 129.91 126.07 138.13 145.66 151.88 151.15 Q 159.07 154.02 167.18 152.04 C 170.07 151.34 172.11 149.38 174.21 147.42 A 0.71 0.7 47 0 0 174.24 146.42" stroke-linecap="round" />
</g>
		<g transform="matrix(1 0 0 1 96.1 83.53)"  >
<path style="stroke: rgb(152,153,152); stroke-width: 2; stroke-dasharray: none; stroke-linecap: butt; stroke-dashoffset: 0; stroke-linejoin: miter; stroke-miterlimit: 4; fill: none; fill-rule: nonzero; opacity: 1;" vector-effect="non-scaling-stroke"  transform=" translate(-290.62, -206.12)" d="M 289.88 202.07 Q 289.88 201.92 289.88 201.76 Q 289.87 201.58 289.72 201.7 Q 289.28 202.05 289.52 202.32 Q 289.81 202.66 289.64 203.07 Q 289.58 203.23 289.5 203.4 Q 289.13 204.18 288.78 203.39 L 286.06 197.19 Q 285.84 196.7 285.32 196.61 L 283.82 196.37 Q 282.77 196.19 283.13 197.19 L 286.5 206.52 A 0.5 0.46 -47.4 0 1 286.5 206.85 Q 286.12 207.9 286.81 208.59 Q 287.16 208.94 287 209.4 L 285.67 213.22 Q 285.43 213.88 285.93 214.38 Q 286.73 215.2 286.56 216.3 A 0.74 0.74 0 0 0 287.06 217.12 C 288.8 217.69 289.42 216.24 289.48 214.76 C 289.77 207.58 293.23 203.24 298.01 197.71 Q 298.44 197.21 297.9 196.85 L 295.54 195.23 Q 295.06 194.89 294.74 195.39 L 290.41 202.23 A 0.29 0.29 0 0 1 289.88 202.07" stroke-linecap="round" />
</g>
		<g transform="matrix(1 0 0 1 -51.72 83.36)"  >
<path style="stroke: rgb(152,153,152); stroke-width: 2; stroke-dasharray: none; stroke-linecap: butt; stroke-dashoffset: 0; stroke-linejoin: miter; stroke-miterlimit: 4; fill: none; fill-rule: nonzero; opacity: 1;" vector-effect="non-scaling-stroke"  transform=" translate(-142.8, -205.95)" d="M 141.91 202.76 Q 144.66 200.25 148.39 199.91 A 1.53 1.52 -39.9 0 0 148.66 196.92 L 143.99 195.63 Q 143.49 195.49 143.09 195.82 C 140.83 197.66 138.08 198.76 136.73 201.39 A 2.9 2.89 -68.7 0 0 138.54 205.51 L 143.99 207.01 A 1.23 1.22 -59.6 0 1 144.52 209.07 Q 141.28 212.27 136.65 211.78 A 0.76 0.76 0 0 0 135.93 212.94 C 137.57 215.52 138.9 217.31 142.24 215.8 Q 146.53 213.86 148.75 209.69 A 1.09 1.08 43 0 0 148.71 208.61 Q 146.32 204.82 142.06 203.46 Q 141.38 203.24 141.91 202.76" stroke-linecap="round" />
</g>
		<g transform="matrix(1 0 0 1 -94.63 83.1)"  >
<path style="stroke: rgb(152,153,152); stroke-width: 2; stroke-dasharray: none; stroke-linecap: butt; stroke-dashoffset: 0; stroke-linejoin: miter; stroke-miterlimit: 4; fill: none; fill-rule: nonzero; opacity: 1;" vector-effect="non-scaling-stroke"  transform=" translate(-99.89, -205.69)" d="M 95.63 210.23 Q 97 209.09 97.19 207.23 Q 97.26 206.53 97.97 206.55 Q 101.59 206.67 105.16 205.43 A 1.14 1.14 0 0 0 104.71 203.21 L 98.87 203.6 Q 98.17 203.64 98.33 202.96 L 99.18 199.34 A 0.57 0.57 0 0 1 99.74 198.89 C 101.53 198.88 106.71 199.83 107.02 197.2 A 1.07 1.06 -86.6 0 0 105.97 196.01 L 96.02 196 Q 95.54 196 95.45 196.48 Q 94.03 203.87 93.52 211.39 Q 93.49 211.86 93.3 212.28 Q 92.77 213.45 92.76 214.75 A 0.63 0.62 -1.3 0 0 93.43 215.38 Q 98.78 215.02 103.98 213.78 Q 106.27 213.23 106.39 211.52 Q 106.48 210.16 105.13 210.28 L 95.97 211.05 A 0.47 0.47 0 0 1 95.63 210.23" stroke-linecap="round" />
</g>
		<g transform="matrix(1 0 0 1 -74.03 84.97)"  >
<path style="stroke: rgb(152,153,152); stroke-width: 2; stroke-dasharray: none; stroke-linecap: butt; stroke-dashoffset: 0; stroke-linejoin: miter; stroke-miterlimit: 4; fill: none; fill-rule: nonzero; opacity: 1;" vector-effect="non-scaling-stroke"  transform=" translate(-120.49, -207.56)" d="M 124.23 214.67 Q 124.05 214.66 123.97 214.47 A 0.12 0.11 -19.3 0 0 123.84 214.41 Q 123.38 214.52 123.62 215.1 A 0.67 0.63 -80.3 0 0 123.76 215.31 Q 125.15 216.7 125.37 218.66 Q 125.43 219.2 125.94 219.03 L 126.99 218.7 Q 127.32 218.6 127.32 218.26 L 127.22 207.67 Q 127.21 207.11 127.75 207 L 128.69 206.81 A 0.35 0.35 0 0 0 128.66 206.12 L 127.43 205.94 A 0.86 0.84 86.8 0 1 126.73 205.3 L 124.59 196.69 Q 124.41 195.96 123.66 195.99 L 119.1 196.16 Q 118.64 196.18 118.49 196.62 L 116.55 202.26 A 0.81 0.8 -47.5 0 0 116.57 202.81 Q 116.94 203.71 115.95 204.16 A 0.89 0.89 0 0 0 115.5 204.64 L 112.06 213.18 A 0.58 0.57 9.8 0 0 112.62 213.97 Q 113.91 213.91 113.86 215.24 Q 113.84 215.75 114.33 215.87 Q 115.71 216.22 115.97 214.81 Q 116.91 209.69 121.69 209.56 A 0.22 0.22 0 0 0 121.75 209.13 L 120.73 208.8 A 0.26 0.26 0 0 1 120.73 208.3 Q 121.75 207.99 122.7 208.08 Q 123.21 208.13 123.2 208.64 Q 123.15 211.66 124.45 214.33 Q 124.62 214.68 124.23 214.67" stroke-linecap="round" />
</g>
		<g transform="matrix(1 0 0 1 -31.99 84.38)"  >
<path style="stroke: rgb(152,153,152); stroke-width: 2; stroke-dasharray: none; stroke-linecap: butt; stroke-dashoffset: 0; stroke-linejoin: miter; stroke-miterlimit: 4; fill: none; fill-rule: nonzero; opacity: 1;" vector-effect="non-scaling-stroke"  transform=" translate(-162.53, -206.96)" d="M 160.08 210.91 Q 158.87 213.02 158.88 215.45 Q 158.88 217.73 160.7 217.9 Q 161.25 217.96 161.25 217.41 L 161.22 213.53 A 0.42 0.41 -48.2 0 1 162.05 213.48 Q 162.27 215.68 161.75 217.83 Q 161.73 217.92 161.82 217.93 Q 161.98 217.96 162.1 217.98 Q 162.54 218.06 162.54 217.61 Q 162.67 208.17 165.18 199.06 Q 165.28 198.7 165.64 198.64 L 170.11 197.92 A 0.89 0.89 0 0 0 170.01 196.15 Q 163.4 195.83 156.25 196.11 Q 153.96 196.2 154.46 198.81 A 0.71 0.7 83.4 0 0 155.18 199.39 L 160.37 199.17 Q 160.8 199.15 160.76 199.57 Q 160.32 204.59 159.24 209.38 Q 159.13 209.85 159.25 210.12 Q 159.42 210.49 159.89 210.54 Q 160.27 210.58 160.08 210.91" stroke-linecap="round" />
</g>
		<g transform="matrix(1 0 0 1 -13.09 83.11)"  >
<path style="stroke: rgb(152,153,152); stroke-width: 2; stroke-dasharray: none; stroke-linecap: butt; stroke-dashoffset: 0; stroke-linejoin: miter; stroke-miterlimit: 4; fill: none; fill-rule: nonzero; opacity: 1;" vector-effect="non-scaling-stroke"  transform=" translate(-181.43, -205.7)" d="M 178.46 207.24 A 1.29 1.28 13.7 0 1 179.72 206.48 Q 183.19 206.69 186.64 205.42 A 1.14 1.14 0 0 0 186.17 203.21 L 180.35 203.61 A 0.5 0.49 -86.1 0 1 179.83 203.01 L 180.61 199.53 Q 180.74 198.93 181.36 198.9 C 183.43 198.79 187.33 199.75 188.47 197.66 A 1.12 1.12 0 0 0 187.48 196.01 L 177.55 196 Q 177.11 196 177.02 196.42 Q 175.41 203.53 175.46 210.78 Q 175.47 211.26 175.18 211.65 Q 174.2 212.99 174.28 214.64 A 0.8 0.8 0 0 0 175.15 215.39 Q 180.8 214.9 186.31 213.63 Q 187.97 213.25 188.01 210.83 Q 188.02 210.21 187.4 210.26 L 177.32 211.06 Q 176.72 211.1 176.97 210.56 L 178.46 207.24" stroke-linecap="round" />
</g>
		<g transform="matrix(1 0 0 1 7.89 85.12)"  >
<path style="stroke: rgb(152,153,152); stroke-width: 2; stroke-dasharray: none; stroke-linecap: butt; stroke-dashoffset: 0; stroke-linejoin: miter; stroke-miterlimit: 4; fill: none; fill-rule: nonzero; opacity: 1;" vector-effect="non-scaling-stroke"  transform=" translate(-202.41, -207.7)" d="M 205.71 204.96 L 207.12 203.27 Q 207.37 202.98 207.42 202.6 Q 208.22 196.93 202.72 196.05 Q 198.89 195.44 195.92 198.57 Q 195.64 198.85 195.69 199.25 L 195.8 200.2 Q 195.85 200.62 196.27 200.64 L 197.1 200.69 Q 197.65 200.72 197.63 201.27 Q 197.56 203.2 196.43 205.67 Q 194.85 209.11 194.92 214.73 A 0.62 0.61 6.9 0 0 195.38 215.31 L 197.54 215.86 Q 198.18 216.02 198.26 215.36 L 198.97 209.22 A 0.42 0.42 0 0 1 199.77 209.09 Q 202.43 214.86 207.75 218.72 Q 209.65 220.1 209.91 217.92 A 1.76 1.73 29 0 0 209.53 216.63 L 203.26 208.99 Q 202.83 208.47 203.47 208.25 Q 206.33 207.3 207.65 204.59 Q 208.23 203.41 207.23 204.26 L 206.03 205.28 A 0.23 0.23 0 0 1 205.71 204.96" stroke-linecap="round" />
</g>
		<g transform="matrix(1 0 0 1 52.33 83.11)"  >
<path style="stroke: rgb(152,153,152); stroke-width: 2; stroke-dasharray: none; stroke-linecap: butt; stroke-dashoffset: 0; stroke-linejoin: miter; stroke-miterlimit: 4; fill: none; fill-rule: nonzero; opacity: 1;" vector-effect="non-scaling-stroke"  transform=" translate(-246.85, -205.7)" d="M 240.02 214.32 L 239.93 215.39 A 0.38 0.38 0 0 0 240.59 215.68 Q 241.24 214.94 242.01 215.53 Q 242.46 215.86 243.02 215.77 C 250.03 214.53 258.29 208.77 253.05 200.55 Q 249.55 195.05 241.69 196.16 Q 241.14 196.24 241.01 196.78 Q 239.24 204.25 239 211.94 Q 238.99 212.41 239.28 212.79 L 239.76 213.43 Q 240.06 213.83 240.02 214.32" stroke-linecap="round" />
</g>
		<g transform="matrix(1 0 0 1 73.56 85.13)"  >
<path style="stroke: rgb(152,153,152); stroke-width: 2; stroke-dasharray: none; stroke-linecap: butt; stroke-dashoffset: 0; stroke-linejoin: miter; stroke-miterlimit: 4; fill: none; fill-rule: nonzero; opacity: 1;" vector-effect="non-scaling-stroke"  transform=" translate(-268.08, -207.71)" d="M 271.01 210.72 Q 272.06 212.78 271.26 214.88 A 0.86 0.86 0 0 0 271.5 215.83 Q 272.73 216.86 272.85 218.57 A 0.92 0.92 0 0 0 274.69 218.51 L 274.73 207.82 Q 274.73 207.06 275.49 206.98 L 276.22 206.9 A 0.34 0.34 0 0 0 276.25 206.23 L 274.96 205.97 A 0.63 0.63 0 0 1 274.59 204.95 Q 275.03 204.42 274.34 204.42 Q 273.88 204.41 273.78 203.97 L 272.1 196.44 Q 271.99 195.95 271.49 195.98 L 266.77 196.18 Q 266.37 196.2 266.22 196.57 L 259.72 212.93 A 1.02 1.02 0 0 0 260.37 214.28 Q 261.65 214.65 261.49 215.06 Q 261.2 215 260.96 214.76 Q 260.69 214.48 260.46 214.8 Q 260.16 215.23 260.78 215.91 A 1.38 1.38 0 0 0 263.1 215.45 L 264.53 211.49 Q 264.73 210.94 265.28 210.74 L 268.75 209.49 Q 269.46 209.24 268.74 209.01 Q 268.28 208.86 267.79 208.89 A 0.25 0.25 0 0 1 267.74 208.39 L 270.24 208.03 A 0.52 0.52 0 0 1 270.76 208.81 Q 270.22 209.71 270.72 210.29 Q 270.89 210.49 271.01 210.72" stroke-linecap="round" />
</g>
		<g transform="matrix(1 0 0 1 29.29 83.7)"  >
<path style="stroke: rgb(152,153,152); stroke-width: 2; stroke-dasharray: none; stroke-linecap: butt; stroke-dashoffset: 0; stroke-linejoin: miter; stroke-miterlimit: 4; fill: none; fill-rule: nonzero; opacity: 1;" vector-effect="non-scaling-stroke"  transform=" translate(-223.81, -206.29)" d="M 226.27 209.24 A 0.16 0.16 0 0 1 225.95 209.24 Q 224.83 203.55 222.3 198.3 A 0.84 0.84 0 0 0 221.97 197.94 L 219.56 196.53 A 1.42 1.41 -66.9 0 0 217.48 197.37 C 216.41 201.19 213.83 210.01 215.54 213.51 A 1.54 1.53 -54 0 0 218.44 213.05 L 219.92 202.8 Q 220.05 201.86 220.48 202.7 Q 223.7 209.01 225.5 215.84 A 0.45 0.45 0 0 0 225.89 216.17 Q 227.77 216.34 228.15 214.38 Q 228.39 213.19 228.69 212.61 Q 228.96 212.1 228.91 212.68 Q 228.85 213.39 229.05 214.02 Q 229.21 214.52 229.32 214 L 232.59 198.22 Q 232.71 197.65 232.15 197.5 L 229.81 196.88 Q 229.07 196.69 228.9 197.44 L 226.27 209.24" stroke-linecap="round" />
</g>
		<g transform="matrix(1 0 0 1 97.68 80.62)"  >
<path style="stroke: rgb(152,153,152); stroke-width: 2; stroke-dasharray: none; stroke-linecap: butt; stroke-dashoffset: 0; stroke-linejoin: miter; stroke-miterlimit: 4; fill: none; fill-rule: nonzero; opacity: 1;" vector-effect="non-scaling-stroke"  transform=" translate(-292.2, -203.2)" d="M 294.04 200.14 Q 291.67 203.07 290.22 205.72 Q 290.09 205.96 290.3 206.19 Q 290.46 206.37 290.59 206.16 L 294.24 200.29 A 0.13 0.12 81.1 0 0 294.04 200.14" stroke-linecap="round" />
</g>
		<g transform="matrix(1 0 0 1 -51.08 77.51)"  >
<path style="stroke: rgb(152,153,152); stroke-width: 2; stroke-dasharray: none; stroke-linecap: butt; stroke-dashoffset: 0; stroke-linejoin: miter; stroke-miterlimit: 4; fill: none; fill-rule: nonzero; opacity: 1;" vector-effect="non-scaling-stroke"  transform=" translate(-143.44, -200.1)" d="M 141.61 200.87 Q 141.06 201.41 141.75 201.08 L 145.58 199.27 A 0.21 0.21 0 0 0 145.42 198.89 Q 142.61 199.89 141.61 200.87" stroke-linecap="round" />
</g>
		<g transform="matrix(1 0 0 1 -73.51 81.48)"  >
<path style="stroke: rgb(152,153,152); stroke-width: 2; stroke-dasharray: none; stroke-linecap: butt; stroke-dashoffset: 0; stroke-linejoin: miter; stroke-miterlimit: 4; fill: none; fill-rule: nonzero; opacity: 1;" vector-effect="non-scaling-stroke"  transform=" translate(-121, -204.07)" d="M 121.08 201.37 L 119.57 205.28 A 1.15 1.15 0 0 0 121.66 206.22 Q 122.85 203.9 121.23 201.36 A 0.09 0.08 40.1 0 0 121.08 201.37" stroke-linecap="round" />
</g>
		<g transform="matrix(1 0 0 1 9 79.85)"  >
<path style="stroke: rgb(152,153,152); stroke-width: 2; stroke-dasharray: none; stroke-linecap: butt; stroke-dashoffset: 0; stroke-linejoin: miter; stroke-miterlimit: 4; fill: none; fill-rule: nonzero; opacity: 1;" vector-effect="non-scaling-stroke"  transform=" translate(-203.52, -202.44)" d="M 205.97 201.29 Q 206.06 201.43 206.18 201.49 Q 207.41 202.04 206.23 201.15 Q 204.3 199.68 201.91 199.5 A 0.89 0.89 0 0 0 200.97 200.2 L 200.01 204.76 Q 199.86 205.49 200.54 205.21 Q 203.6 203.97 205.47 201.28 Q 205.73 200.9 205.97 201.29" stroke-linecap="round" />
</g>
		<g transform="matrix(1 0 0 1 52.81 82.51)"  >
<path style="stroke: rgb(152,153,152); stroke-width: 2; stroke-dasharray: none; stroke-linecap: butt; stroke-dashoffset: 0; stroke-linejoin: miter; stroke-miterlimit: 4; fill: none; fill-rule: nonzero; opacity: 1;" vector-effect="non-scaling-stroke"  transform=" translate(-247.33, -205.09)" d="M 244.09 200.56 L 242.75 209.95 Q 242.67 210.53 243.24 210.43 Q 247.79 209.66 249.02 208.55 Q 252.54 205.38 250.82 200.92 Q 250.59 200.33 249.96 200.26 L 245.19 199.71 A 1 0.99 7.1 0 0 244.09 200.56" stroke-linecap="round" />
</g>
		<g transform="matrix(1 0 0 1 58.53 83.02)"  >
<path style="stroke: rgb(152,153,152); stroke-width: 2; stroke-dasharray: none; stroke-linecap: butt; stroke-dashoffset: 0; stroke-linejoin: miter; stroke-miterlimit: 4; fill: none; fill-rule: nonzero; opacity: 1;" vector-effect="non-scaling-stroke"  transform=" translate(-253.05, -205.6)" d="M 253.13 206.94 Q 253.08 207.12 253.19 207.25 Q 254.05 208.23 253.73 207.23 L 252.71 203.99 Q 252.39 202.96 252.26 204.03 Q 252.1 205.35 252.98 206.27 Q 253.25 206.56 253.13 206.94" stroke-linecap="round" />
</g>
		<g transform="matrix(1 0 0 1 73.84 81.32)"  >
<path style="stroke: rgb(152,153,152); stroke-width: 2; stroke-dasharray: none; stroke-linecap: butt; stroke-dashoffset: 0; stroke-linejoin: miter; stroke-miterlimit: 4; fill: none; fill-rule: nonzero; opacity: 1;" vector-effect="non-scaling-stroke"  transform=" translate(-268.36, -203.91)" d="M 266.91 205.8 A 0.45 0.45 0 0 0 267.3 206.4 L 268.65 206.47 Q 269.22 206.5 269.39 205.95 Q 270.05 203.77 268.87 201.73 Q 268.55 201.19 268.34 201.78 L 266.91 205.8" stroke-linecap="round" />
</g>
		<g transform="matrix(1 0 0 1 71.57 81.24)"  >
<path style="stroke: rgb(152,153,152); stroke-width: 2; stroke-dasharray: none; stroke-linecap: butt; stroke-dashoffset: 0; stroke-linejoin: miter; stroke-miterlimit: 4; fill: none; fill-rule: nonzero; opacity: 1;" vector-effect="non-scaling-stroke"  transform=" translate(-266.09, -203.83)" d="M 266.11 203.5 Q 265.59 204.01 265.54 204.48 A 0.15 0.15 0 0 0 265.82 204.58 L 266.63 203.28 A 0.21 0.21 0 0 0 266.29 203.05 Q 266.15 203.24 266.11 203.5" stroke-linecap="round" />
</g>
		<g transform="matrix(1 0 0 1 -82.42 -65.59)"  >
<path style="stroke: none; stroke-width: 1; stroke-dasharray: none; stroke-linecap: butt; stroke-dashoffset: 0; stroke-linejoin: miter; stroke-miterlimit: 4; fill: rgb(48,50,49); fill-rule: nonzero; opacity: 1;"  transform=" translate(-112.1, -57)" d="M 96.96 47.63 L 88.82 47.63 Q 88.26 47.63 88.25 47.07 L 88.23 45.52 A 0.5 0.49 -0.6 0 1 88.73 45.02 L 98.72 45.03 Q 99.15 45.03 99.36 44.65 L 101.62 40.54 Q 101.91 40 102.54 40 L 107.51 40 Q 108.38 40 107.94 40.76 L 105.86 44.35 A 0.46 0.45 14.8 0 0 106.26 45.03 L 135.47 45.02 Q 136.02 45.02 135.94 45.57 C 135.76 46.76 135 47.62 133.69 47.62 Q 119.13 47.63 104.58 47.62 Q 104.07 47.62 103.83 48.07 L 99.37 56.34 Q 99.03 56.98 99.75 56.98 L 110.01 56.97 Q 110.49 56.97 110.49 56.49 L 110.49 50.21 Q 110.49 49.66 111.04 49.66 L 116.25 49.66 Q 116.84 49.66 116.84 50.25 L 116.85 56.29 Q 116.86 56.97 117.54 56.97 L 133.76 56.97 A 0.39 0.39 0 0 1 134.09 57.57 L 133.14 59.07 Q 132.85 59.53 132.3 59.53 L 117.29 59.53 A 0.44 0.43 0 0 0 116.85 59.96 L 116.87 73.44 Q 116.87 74 116.31 74 L 105.48 74 A 0.89 0.88 77.3 0 1 104.68 73.49 L 103.95 71.99 Q 103.71 71.49 104.27 71.49 L 110 71.49 Q 110.49 71.49 110.49 71 L 110.49 60.01 Q 110.49 59.52 110.01 59.52 L 91.94 59.53 Q 91.26 59.53 91.58 58.93 L 97.34 48.26 Q 97.68 47.62 96.96 47.63 Z" stroke-linecap="round" />
</g>
		<g transform="matrix(1 0 0 1 -27.08 -65.59)"  >
<path style="stroke: none; stroke-width: 1; stroke-dasharray: none; stroke-linecap: butt; stroke-dashoffset: 0; stroke-linejoin: miter; stroke-miterlimit: 4; fill: rgb(48,50,49); fill-rule: nonzero; opacity: 1;"  transform=" translate(-167.44, -57)" d="M 155.98 49.02 L 155.97 52.5 Q 155.97 53.03 156.5 53.03 L 186.72 53.03 A 0.44 0.44 0 0 1 187.16 53.47 L 187.16 73.54 Q 187.16 74 186.7 74 L 169.53 74 A 0.86 0.86 0 0 1 168.77 73.54 L 167.9 71.89 Q 167.62 71.35 168.23 71.35 L 180.28 71.35 Q 180.86 71.35 180.86 70.77 L 180.89 54.23 A 0.32 0.32 0 0 0 180.29 54.09 L 179.77 55.15 Q 179.49 55.72 178.86 55.72 L 156.5 55.71 Q 155.96 55.71 155.96 56.25 C 156.01 59.99 156.73 64.81 154.79 68.14 Q 153.17 70.91 151.57 73.63 Q 151.36 74 150.93 74 L 145.77 74 Q 145.04 74 145.41 73.37 C 147.12 70.52 149.71 67.33 149.72 63.9 Q 149.73 56.44 149.72 49.01 Q 149.72 48.51 149.21 48.51 L 147.17 48.54 Q 146.54 48.55 146.53 47.92 L 146.5 46.62 A 0.63 0.62 -0.9 0 1 147.13 45.98 L 165.52 45.98 A 0.37 0.37 0 0 0 165.86 45.47 L 163.9 40.58 A 0.42 0.42 0 0 1 164.29 40 L 169.22 40 Q 169.98 40 170.26 40.71 L 172.12 45.5 Q 172.31 45.97 172.81 45.97 L 189.25 45.98 A 0.47 0.46 -75 0 1 189.65 46.68 L 188.87 48.05 Q 188.6 48.52 188.05 48.52 L 156.48 48.52 Q 155.99 48.52 155.98 49.02 Z" stroke-linecap="round" />
</g>
		<g transform="matrix(1 -0.02 0.02 1 -81.31 -82.07)"  >
<ellipse style="stroke: none; stroke-width: 1; stroke-dasharray: none; stroke-linecap: butt; stroke-dashoffset: 0; stroke-linejoin: miter; stroke-miterlimit: 4; fill: rgb(19,153,6); fill-rule: nonzero; opacity: 1;"  cx="0" cy="0" rx="1.1" ry="0.38" />
</g>
		<g transform="matrix(0.93 0.36 -0.36 0.93 -18.77 -81.45)"  >
<ellipse style="stroke: none; stroke-width: 1; stroke-dasharray: none; stroke-linecap: butt; stroke-dashoffset: 0; stroke-linejoin: miter; stroke-miterlimit: 4; fill: rgb(19,153,6); fill-rule: nonzero; opacity: 1;"  cx="0" cy="0" rx="1.54" ry="0.77" />
</g>
		<g transform="matrix(1 0 0 1 26 -79.33)"  >
<path style="stroke: none; stroke-width: 1; stroke-dasharray: none; stroke-linecap: butt; stroke-dashoffset: 0; stroke-linejoin: miter; stroke-miterlimit: 4; fill: rgb(19,153,6); fill-rule: nonzero; opacity: 1;"  transform=" translate(-220.52, -43.26)" d="M 218.48 41.46 A 0.13 0.13 0 0 1 218.52 41.21 C 220.53 41.08 222.52 42.92 222.62 44.93 Q 222.65 45.43 222.37 45.01 C 221.02 43 221.04 42.52 218.48 41.46 Z" stroke-linecap="round" />
</g>
		<g transform="matrix(1 0 0 1 47.66 -79.46)"  >
<path style="stroke: none; stroke-width: 1; stroke-dasharray: none; stroke-linecap: butt; stroke-dashoffset: 0; stroke-linejoin: miter; stroke-miterlimit: 4; fill: rgb(19,153,6); fill-rule: nonzero; opacity: 1;"  transform=" translate(-242.18, -43.12)" d="M 243.75 45.03 C 242.93 42.64 242.18 42.82 240.32 41.66 A 0.32 0.32 0 0 1 240.56 41.07 C 242.08 41.43 244.54 43.13 244.18 45 A 0.22 0.22 0 0 1 243.75 45.03 Z" stroke-linecap="round" />
</g>
		<g transform="matrix(1 0 0 1 82.94 -65.34)"  >
<path style="stroke: none; stroke-width: 1; stroke-dasharray: none; stroke-linecap: butt; stroke-dashoffset: 0; stroke-linejoin: miter; stroke-miterlimit: 4; fill: rgb(48,50,49); fill-rule: nonzero; opacity: 1;"  transform=" translate(-277.46, -57.24)" d="M 265.67 55.98 L 254.73 55.98 A 0.31 0.31 0 0 1 254.42 55.67 L 254.45 52.87 A 0.31 0.31 0 0 1 254.76 52.56 L 268.25 52.56 A 0.31 0.31 0 0 0 268.51 52.41 L 273.2 44.89 A 0.31 0.31 0 0 0 272.94 44.42 L 255.8 44.4 A 0.31 0.31 0 0 1 255.49 44.09 L 255.48 41.31 A 0.31 0.31 0 0 1 255.79 41 L 298.71 41 A 0.31 0.31 0 0 1 299 41.43 L 297.77 44.22 A 0.31 0.31 0 0 1 297.49 44.41 L 281.28 44.4 A 0.31 0.31 0 0 0 281.02 44.55 L 276.36 52.09 A 0.31 0.31 0 0 0 276.63 52.56 L 300.2 52.56 A 0.31 0.31 0 0 1 300.48 52.99 L 299.27 55.79 A 0.31 0.31 0 0 1 298.99 55.98 L 274.06 55.98 A 0.31 0.31 0 0 0 273.8 56.12 L 262.91 73.34 A 0.31 0.31 0 0 1 262.65 73.48 L 255.72 73.49 A 0.31 0.31 0 0 1 255.46 73.01 L 265.93 56.46 A 0.31 0.31 0 0 0 265.67 55.98 Z" stroke-linecap="round" />
</g>
		<g transform="matrix(1 0 0 1 100.89 -76.47)"  >
<path style="stroke: none; stroke-width: 1; stroke-dasharray: none; stroke-linecap: butt; stroke-dashoffset: 0; stroke-linejoin: miter; stroke-miterlimit: 4; fill: rgb(19,153,6); fill-rule: nonzero; opacity: 1;"  transform=" translate(-295.41, -46.11)" d="M 306.87 43.63 Q 307.53 47.16 304.72 50.78 Q 304.43 51.16 304.19 50.74 Q 303.07 48.8 301.25 48.77 Q 292.45 48.64 283.65 48.71 Q 283.59 48.71 283.59 48.66 L 283.58 48.38 Q 283.58 48.29 283.67 48.29 Q 290.96 48.25 298.25 48.28 C 301.07 48.29 302.35 43.88 303.02 41.6 Q 303.15 41.16 303.61 41.17 Q 306.44 41.29 306.87 43.63 Z" stroke-linecap="round" />
</g>
		<g transform="matrix(1 0 0 1 23.38 -72.95)"  >
<path style="stroke: none; stroke-width: 1; stroke-dasharray: none; stroke-linecap: butt; stroke-dashoffset: 0; stroke-linejoin: miter; stroke-miterlimit: 4; fill: rgb(48,50,49); fill-rule: nonzero; opacity: 1;"  transform=" translate(-217.9, -49.64)" d="M 233.83 45.94 L 227.88 57.6 Q 227.68 58 227.23 58 L 218.03 58 A 0.83 0.83 0 0 1 217.27 57.51 L 212.52 46.75 Q 212.18 45.98 211.8 46.74 L 206.41 57.44 Q 206.12 58 205.5 58 L 200.26 57.99 Q 199.62 57.99 199.91 57.42 L 207.94 41.65 Q 208.13 41.28 208.54 41.28 L 213.93 41.29 Q 214.65 41.29 214.32 41.93 L 212.64 45.16 Q 212.36 45.72 212.98 45.72 L 217.7 45.75 Q 218.2 45.75 218.41 46.21 L 222.18 54.74 Q 222.47 55.41 222.8 54.76 L 229.44 41.77 A 0.89 0.87 -75.9 0 1 230.22 41.29 L 235.5 41.27 Q 236.19 41.27 235.88 41.89 L 233.83 45.94 Z" stroke-linecap="round" />
</g>
		<g transform="matrix(1 0 0 1 -62.52 -72.33)"  >
<path style="stroke: none; stroke-width: 1; stroke-dasharray: none; stroke-linecap: butt; stroke-dashoffset: 0; stroke-linejoin: miter; stroke-miterlimit: 4; fill: rgb(19,153,6); fill-rule: nonzero; opacity: 1;"  transform=" translate(-132, -50.26)" d="M 137.64 50.49 Q 139.34 48.4 140.13 45.76 A 1.21 1.21 0 0 1 142.5 46.16 Q 142.4 48.62 143.2 50.92 Q 143.38 51.44 143.22 51.96 Q 142.22 55.06 139.04 55.61 A 0.99 0.98 -23.8 0 1 138.1 55.25 C 136.88 53.73 135.82 52.99 133.74 53 Q 128.11 53.02 122.51 53.2 Q 121.11 53.24 120.69 52.2 A 0.49 0.48 78.4 0 1 121.13 51.53 L 135.48 51.51 A 2.8 2.8 0 0 0 137.64 50.49 Z" stroke-linecap="round" />
</g>
		<g transform="matrix(1 0 0 1 44.97 -70.68)"  >
<path style="stroke: none; stroke-width: 1; stroke-dasharray: none; stroke-linecap: butt; stroke-dashoffset: 0; stroke-linejoin: miter; stroke-miterlimit: 4; fill: rgb(48,50,49); fill-rule: nonzero; opacity: 1;"  transform=" translate(-239.49, -51.91)" d="M 233.83 45.94 L 239.11 45.82 Q 239.75 45.8 240.01 46.39 L 244.98 57.41 Q 245.25 58 244.6 58 L 239.73 58 Q 239.17 58 238.95 57.49 L 233.83 45.94 Z" stroke-linecap="round" />
</g>
		<g transform="matrix(1 0 0 1 -11.25 -58.5)"  >
<path style="stroke: none; stroke-width: 1; stroke-dasharray: none; stroke-linecap: butt; stroke-dashoffset: 0; stroke-linejoin: miter; stroke-miterlimit: 4; fill: rgb(19,153,6); fill-rule: nonzero; opacity: 1;"  transform=" translate(-183.27, -64.08)" d="M 194.49 46.17 C 200.26 47.04 197.45 52.21 195.43 55.38 Q 195.15 55.83 195.15 56.36 L 195.14 77.96 A 4.02 4.02 0 0 1 191.14 81.98 Q 182.2 82.04 173.53 81.97 C 170.97 81.95 169.59 80.91 168.76 78.66 Q 168.53 78.01 169.22 78.01 L 186.87 78 A 4.13 4.13 0 0 0 191 73.87 L 191.02 52.28 A 1.12 1.11 63.9 0 1 191.25 51.6 Q 193.01 49.29 193.89 46.55 Q 194.03 46.11 194.49 46.17 Z" stroke-linecap="round" />
</g>
		<g transform="matrix(1 0 0 1 32.1 -58.97)"  >
<path style="stroke: none; stroke-width: 1; stroke-dasharray: none; stroke-linecap: butt; stroke-dashoffset: 0; stroke-linejoin: miter; stroke-miterlimit: 4; fill: rgb(19,153,6); fill-rule: nonzero; opacity: 1;"  transform=" translate(-226.62, -63.62)" d="M 249.16 66.79 Q 251.45 70.43 251.36 74.71 A 1.23 1.22 -68.1 0 0 251.76 75.66 L 253.17 76.98 Q 253.52 77.31 253.41 77.78 Q 252.49 81.35 249.25 81.27 Q 232.6 80.86 215.94 81.02 C 215.13 81.03 213.79 80.4 213.25 80.49 C 209.5 81.13 200.26 82.65 199.78 77.56 Q 199.73 77.01 200.27 77.01 L 206.81 76.99 A 0.4 0.35 30.1 0 0 206.96 76.96 C 209.04 76.02 210.65 76.99 212.26 76.98 Q 227.87 76.92 243.46 77.21 C 247.59 77.29 250.69 75.71 248.74 71.1 Q 246.95 66.86 245.16 62.66 Q 244.93 62.13 245.49 62 Q 250.69 60.78 248.38 55.57 Q 246.36 51.05 244.44 46.52 Q 244.18 45.91 244.84 45.97 C 248.11 46.27 250.36 55.46 250.76 57.51 Q 250.85 58 251.21 58.37 C 254.05 61.31 254.21 64.98 249.5 65.99 A 0.53 0.53 0 0 0 249.16 66.79 Z" stroke-linecap="round" />
</g>
		<g transform="matrix(1 0 0 1 66.31 -74.06)"  >
<path style="stroke: none; stroke-width: 1; stroke-dasharray: none; stroke-linecap: butt; stroke-dashoffset: 0; stroke-linejoin: miter; stroke-miterlimit: 4; fill: rgb(19,153,6); fill-rule: nonzero; opacity: 1;"  transform=" translate(-260.83, -48.53)" d="M 255.86 48.27 L 266.08 48.29 Q 266.13 48.29 266.13 48.33 L 266.13 48.63 Q 266.13 48.68 266.05 48.68 Q 261.02 48.72 256 48.78 Q 255.74 48.78 255.65 48.61 Q 255.47 48.27 255.86 48.27 Z" stroke-linecap="round" />
</g>
		<g transform="matrix(1 0 0 1 -105.01 -69.58)"  >
<path style="stroke: none; stroke-width: 1; stroke-dasharray: none; stroke-linecap: butt; stroke-dashoffset: 0; stroke-linejoin: miter; stroke-miterlimit: 4; fill: rgb(19,153,6); fill-rule: nonzero; opacity: 1;"  transform=" translate(-89.51, -53.01)" d="M 90.79 52.13 L 89.7 54.27 A 0.43 0.43 0 0 1 88.9 54.21 L 88.2 52.1 A 0.43 0.43 0 0 1 88.6 51.53 L 90.4 51.5 A 0.43 0.43 0 0 1 90.79 52.13 Z" stroke-linecap="round" />
</g>
		<g transform="matrix(1 0 0 1 105.67 -55.38)"  >
<path style="stroke: none; stroke-width: 1; stroke-dasharray: none; stroke-linecap: butt; stroke-dashoffset: 0; stroke-linejoin: miter; stroke-miterlimit: 4; fill: rgb(19,153,6); fill-rule: nonzero; opacity: 1;"  transform=" translate(-300.19, -67.2)" d="M 300.45 64.7 Q 303.38 69.22 306.21 73.81 C 311.67 82.68 301.12 81.44 296.47 81.56 Q 293.13 81.65 291.77 77.8 Q 291.65 77.47 292 77.48 C 296.6 77.57 307.57 78.7 302.37 70.28 Q 299.35 65.39 296.51 60.97 Q 296.05 60.24 296.91 60.19 C 302.47 59.87 303.24 57.63 304.61 53.3 Q 304.78 52.79 305.31 52.86 Q 309.06 53.35 308.26 57.71 Q 307.04 64.33 300.72 64.21 Q 300.13 64.2 300.45 64.7 Z" stroke-linecap="round" />
</g>
		<g transform="matrix(1 0 0 1 38.9 -65.62)"  >
<path style="stroke: none; stroke-width: 1; stroke-dasharray: none; stroke-linecap: butt; stroke-dashoffset: 0; stroke-linejoin: miter; stroke-miterlimit: 4; fill: rgb(19,153,6); fill-rule: nonzero; opacity: 1;"  transform=" translate(-233.42, -56.97)" d="M 233 58 Q 232.78 58.12 232.58 58.13 Q 232.04 58.16 232.18 57.64 Q 232.5 56.46 233.05 56.02 A 1.04 1.04 0 0 1 234.48 57.52 Q 233.94 58.14 233 58 Z" stroke-linecap="round" />
</g>
		<g transform="matrix(1 0 0 1 -59.47 -52.97)"  >
<path style="stroke: none; stroke-width: 1; stroke-dasharray: none; stroke-linecap: butt; stroke-dashoffset: 0; stroke-linejoin: miter; stroke-miterlimit: 4; fill: rgb(19,153,6); fill-rule: nonzero; opacity: 1;"  transform=" translate(-135.05, -69.62)" d="M 137.55 68.11 L 142.26 77.32 Q 142.52 77.82 142.41 78.38 C 141.58 82.9 135.93 82.13 132.32 81.99 C 129.82 81.89 128.54 80.84 127.73 78.61 Q 127.54 78.09 128.1 78.06 C 131.18 77.9 136.53 78.93 138.1 75.55 C 139.26 73.06 134.75 66.57 133.37 64.2 Q 133.12 63.77 133.57 63.55 Q 137.39 61.74 138.23 57.46 A 0.44 0.44 0 0 1 138.73 57.11 C 145.35 58.12 141.6 65.51 137.77 67.43 Q 137.32 67.65 137.55 68.11 Z" stroke-linecap="round" />
</g>
		<g transform="matrix(1 0 0 1 96.26 -57.25)"  >
<path style="stroke: none; stroke-width: 1; stroke-dasharray: none; stroke-linecap: butt; stroke-dashoffset: 0; stroke-linejoin: miter; stroke-miterlimit: 4; fill: rgb(48,50,49); fill-rule: nonzero; opacity: 1;"  transform=" translate(-290.77, -65.34)" d="M 289.49 57.34 L 299.45 73 A 0.31 0.31 0 0 1 299.19 73.48 L 292.26 73.49 A 0.31 0.31 0 0 1 292 73.35 L 282.1 57.67 A 0.31 0.31 0 0 1 282.36 57.19 L 289.23 57.2 A 0.31 0.31 0 0 1 289.49 57.34 Z" stroke-linecap="round" />
</g>
		<g transform="matrix(1 0 0 1 29.19 -56.42)"  >
<path style="stroke: none; stroke-width: 1; stroke-dasharray: none; stroke-linecap: butt; stroke-dashoffset: 0; stroke-linejoin: miter; stroke-miterlimit: 4; fill: rgb(48,50,49); fill-rule: nonzero; opacity: 1;"  transform=" translate(-223.71, -66.17)" d="M 218.55 70.74 L 235.23 70.73 A 0.42 0.42 0 0 1 235.65 71.14 L 235.67 72.65 A 0.42 0.42 0 0 1 235.25 73.08 L 212.17 73.08 A 0.42 0.42 0 0 1 211.75 72.66 L 211.75 59.67 A 0.42 0.42 0 0 1 212.17 59.25 L 217.72 59.25 A 0.42 0.42 0 0 1 218.14 59.67 L 218.13 70.32 A 0.42 0.42 0 0 0 218.55 70.74 Z" stroke-linecap="round" />
</g>
		<g transform="matrix(1 0 0 1 -33.58 -51.64)"  >
<path style="stroke: none; stroke-width: 1; stroke-dasharray: none; stroke-linecap: butt; stroke-dashoffset: 0; stroke-linejoin: miter; stroke-miterlimit: 4; fill: rgb(19,153,6); fill-rule: nonzero; opacity: 1;"  transform=" translate(-160.94, -70.95)" d="M 163.94 64.35 C 164.14 71.9 162.05 74.73 158.6 80.13 C 156.86 82.86 151.98 82.05 149.29 81.9 Q 145.81 81.71 145.09 78.59 Q 144.95 78.02 145.54 78.02 L 151.7 77.98 A 3.35 3.33 15 0 0 154.56 76.34 L 159.57 67.75 Q 159.85 67.27 159.85 66.73 L 159.86 60.34 Q 159.86 59.78 160.42 59.78 L 176.19 59.77 Q 176.85 59.77 176.85 60.43 L 176.86 63.21 Q 176.86 63.78 176.29 63.78 L 164.49 63.77 Q 163.92 63.77 163.94 64.35 Z" stroke-linecap="round" />
</g>
		<g transform="matrix(1 0 0 1 62.02 -60.93)"  >
<path style="stroke: none; stroke-width: 1; stroke-dasharray: none; stroke-linecap: butt; stroke-dashoffset: 0; stroke-linejoin: miter; stroke-miterlimit: 4; fill: rgb(19,153,6); fill-rule: nonzero; opacity: 1;"  transform=" translate(-256.54, -61.66)" d="M 257.63 61.99 L 257.08 62.98 A 0.67 0.66 -57.8 0 1 256.12 63.2 Q 254.82 62.28 254.45 60.74 Q 254.27 59.99 255.04 60 L 258.26 60.04 A 0.46 0.46 0 0 1 258.58 60.83 L 258.3 61.11 Q 257.9 61.51 257.63 61.99 Z" stroke-linecap="round" />
</g>
		<g transform="matrix(1 0 0 1 73.79 -51.93)"  >
<path style="stroke: none; stroke-width: 1; stroke-dasharray: none; stroke-linecap: butt; stroke-dashoffset: 0; stroke-linejoin: miter; stroke-miterlimit: 4; fill: rgb(19,153,6); fill-rule: nonzero; opacity: 1;"  transform=" translate(-268.31, -70.65)" d="M 267.13 74.13 Q 271.5 66.96 275.63 60.63 A 2.26 2.26 0 0 1 279.65 61.12 Q 280.03 62.2 280.89 62.96 Q 281.47 63.47 280.78 63.81 L 280.33 64.03 Q 279.85 64.26 279.56 64.71 L 269.95 79.88 A 3.2 3.17 -76.9 0 1 267.62 81.34 C 264.58 81.68 255.73 82.79 255.33 78 Q 255.29 77.52 255.77 77.52 C 260.56 77.49 264.24 78.85 267.13 74.13 Z" stroke-linecap="round" />
</g>
		<g transform="matrix(1 0 0 1 31.4 -58.21)"  >
<path style="stroke: none; stroke-width: 1; stroke-dasharray: none; stroke-linecap: butt; stroke-dashoffset: 0; stroke-linejoin: miter; stroke-miterlimit: 4; fill: rgb(48,50,49); fill-rule: nonzero; opacity: 1;"  transform=" translate(-225.92, -64.38)" d="M 224.35 67.73 L 221.09 61.36 A 0.38 0.38 0 0 1 221.43 60.81 L 227.2 60.86 A 0.38 0.38 0 0 1 227.53 61.07 L 230.75 67.37 A 0.38 0.38 0 0 1 230.41 67.92 L 224.69 67.94 A 0.38 0.38 0 0 1 224.35 67.73 Z" stroke-linecap="round" />
</g>
		<g transform="matrix(1 0 0 1 -97.34 -54.65)"  >
<path style="stroke: none; stroke-width: 1; stroke-dasharray: none; stroke-linecap: butt; stroke-dashoffset: 0; stroke-linejoin: miter; stroke-miterlimit: 4; fill: rgb(48,50,49); fill-rule: nonzero; opacity: 1;"  transform=" translate(-97.17, -67.94)" d="M 90.95 73.49 L 97.22 62.07 A 0.33 0.33 0 0 1 97.51 61.9 L 103.11 61.94 A 0.33 0.33 0 0 1 103.4 62.43 L 97.11 73.8 A 0.33 0.33 0 0 1 96.83 73.97 L 91.24 73.98 A 0.33 0.33 0 0 1 90.95 73.49 Z" stroke-linecap="round" />
</g>
		<g transform="matrix(1 0 0 1 10.73 -55.19)"  >
<path style="stroke: none; stroke-width: 1; stroke-dasharray: none; stroke-linecap: butt; stroke-dashoffset: 0; stroke-linejoin: miter; stroke-miterlimit: 4; fill: rgb(48,50,49); fill-rule: nonzero; opacity: 1;"  transform=" translate(-205.25, -67.4)" d="M 199.87 72.63 L 204.05 61.93 A 0.34 0.34 0 0 1 204.36 61.71 L 210.31 61.71 A 0.34 0.34 0 0 1 210.63 62.17 L 206.42 72.86 A 0.34 0.34 0 0 1 206.11 73.08 L 200.19 73.09 A 0.34 0.34 0 0 1 199.87 72.63 Z" stroke-linecap="round" />
</g>
		<g transform="matrix(1 0 0 1 45.11 -55.09)"  >
<path style="stroke: none; stroke-width: 1; stroke-dasharray: none; stroke-linecap: butt; stroke-dashoffset: 0; stroke-linejoin: miter; stroke-miterlimit: 4; fill: rgb(48,50,49); fill-rule: nonzero; opacity: 1;"  transform=" translate(-239.63, -67.5)" d="M 238.77 73.04 L 234.05 62.2 A 0.31 0.31 0 0 1 234.33 61.76 L 240.3 61.78 A 0.31 0.31 0 0 1 240.58 61.97 L 245.22 72.79 A 0.31 0.31 0 0 1 244.93 73.22 L 239.05 73.23 A 0.31 0.31 0 0 1 238.77 73.04 Z" stroke-linecap="round" />
</g>
		<g transform="matrix(1 0 0 1 -66.74 -54.66)"  >
<path style="stroke: none; stroke-width: 1; stroke-dasharray: none; stroke-linecap: butt; stroke-dashoffset: 0; stroke-linejoin: miter; stroke-miterlimit: 4; fill: rgb(48,50,49); fill-rule: nonzero; opacity: 1;"  transform=" translate(-127.78, -67.93)" d="M 127.9 73.82 L 121.41 62.34 A 0.3 0.3 0 0 1 121.67 61.89 L 127.4 61.95 A 0.3 0.3 0 0 1 127.66 62.1 L 134.15 73.52 A 0.3 0.3 0 0 1 133.88 73.97 L 128.16 73.97 A 0.3 0.3 0 0 1 127.9 73.82 Z" stroke-linecap="round" />
</g>
		<g transform="matrix(1 0 0 1 -86.82 -46.51)"  >
<path style="stroke: none; stroke-width: 1; stroke-dasharray: none; stroke-linecap: butt; stroke-dashoffset: 0; stroke-linejoin: miter; stroke-miterlimit: 4; fill: rgb(19,153,6); fill-rule: nonzero; opacity: 1;"  transform=" translate(-107.7, -76.08)" d="M 104.6 79.71 Q 103.2 81.8 101.5 81.92 C 97.87 82.18 91.63 82.89 90.72 78.67 Q 90.6 78.11 91.17 78.07 C 94.48 77.85 98.67 79.12 100.64 75.49 A 0.36 0.36 0 0 1 101.28 75.49 Q 102.63 77.97 104.74 77.98 C 108.68 78.01 117.72 79.17 120.36 75.98 Q 120.68 75.6 120.69 75.11 L 120.8 70.51 Q 120.82 69.79 121.25 70.37 C 122.89 72.55 125.61 76.96 124.47 79.67 Q 123.54 81.88 120.74 81.94 C 114.67 82.07 107.62 83.15 105.35 79.71 Q 104.98 79.15 104.6 79.71 Z" stroke-linecap="round" />
</g>
		<g transform="matrix(1 0 0 1 -77.86 11.41)"  >
<path style="stroke: none; stroke-width: 1; stroke-dasharray: none; stroke-linecap: butt; stroke-dashoffset: 0; stroke-linejoin: miter; stroke-miterlimit: 4; fill: rgb(209,167,94); fill-rule: nonzero; opacity: 1;"  transform=" translate(-116.66, -134)" d="M 167.15 158.89 Q 156.35 160.28 145.5 159.69 Q 141.26 159.46 130.09 157.51 Q 111.03 154.19 91.5 155.19 Q 90.98 155.22 90.67 155.63 C 82.31 166.88 66.08 164.27 58.8 153.44 Q 58.23 152.58 59.09 152.01 Q 74.74 141.71 88.89 153.68 Q 89.31 154.04 89.86 153.93 Q 100.83 151.79 111.96 152.87 A 0.3 0.3 0 0 0 112.08 152.28 Q 93.49 146.18 76.77 135.79 Q 69.65 131.36 65.81 129.89 Q 58.07 126.92 49.73 125.93 Q 49.23 125.87 48.93 126.27 C 42.27 135.19 29.61 134.51 21.78 127.73 Q 19.48 125.74 17.5 123.37 A 0.83 0.82 53.1 0 1 17.67 122.16 Q 33.36 111.39 47.9 123.63 A 1.5 1.48 63.8 0 0 48.91 123.98 Q 56.13 123.78 59.26 125 Q 61.06 125.71 62.23 125.88 Q 63.27 126.03 62.45 125.36 Q 49.8 115.13 38.39 103.52 A 1.36 1.36 0 0 0 37.44 103.11 C 33.74 103.05 29.87 103.53 26.64 101.53 Q 15.4 94.55 14.92 79.85 A 1.45 1.45 0 0 1 16.62 78.37 Q 35.11 81.69 37.75 100.31 Q 37.82 100.84 38.2 101.22 Q 54.99 117.87 74.37 131.42 Q 76.25 132.74 74.92 130.87 C 72.76 127.85 71.22 125.43 68.04 122.67 C 58.5 114.39 60.18 99.83 68.48 91.25 Q 68.81 90.92 69.13 91.27 Q 82.47 106.1 72.13 123.5 Q 71.84 123.99 72.21 124.43 Q 78.07 131.31 84.76 137.12 Q 87.61 139.6 91.42 141.28 C 108.19 148.66 122.8 154.53 139.49 156.81 A 0.09 0.09 0 0 0 139.53 156.64 Q 129.94 152.47 121.78 147.2 C 118.18 144.86 115.76 146.64 112.05 145.7 C 101.6 143.04 94.87 132.04 96.43 121.69 Q 96.61 120.56 97.71 120.84 Q 116.07 125.46 118.89 142.35 C 119.11 143.68 119.04 144.3 120.42 144.89 Q 131.28 149.6 141.78 155.05 C 143.39 155.89 146.96 157.58 148.83 157.64 Q 169.01 158.2 188.45 152.8 Q 188.89 152.68 188.46 152.53 Q 169.56 145.68 168.08 125.25 Q 167.07 111.4 173.33 101.1 C 178.8 92.09 190.01 83.4 200.69 89.31 Q 215.63 97.59 217.98 115.76 C 219.3 125.92 217.73 136.65 210.93 144.28 C 206.23 149.55 198.62 153.79 191.21 153.12 Q 190.66 153.07 190.31 153.49 L 190.06 153.78 A 1.53 1.51 12.8 0 1 189.32 154.24 C 185.15 155.4 180.71 156.11 176.84 157.72 Q 162.72 163.62 149.57 171.5 A 1 0.98 77.3 0 0 149.09 172.28 C 147.99 186.39 133.89 192.69 121.58 188.24 A 0.77 0.77 0 0 1 121.12 187.26 Q 127.85 168.79 147.91 171 Q 148.4 171.06 148.77 170.74 Q 157.17 163.66 167.26 159.28 Q 168.59 158.7 167.15 158.89 Z" stroke-linecap="round" />
</g>
		<g transform="matrix(1 0 0 1 91.95 11.36)"  >
<path style="stroke: none; stroke-width: 1; stroke-dasharray: none; stroke-linecap: butt; stroke-dashoffset: 0; stroke-linejoin: miter; stroke-miterlimit: 4; fill: rgb(209,167,94); fill-rule: nonzero; opacity: 1;"  transform=" translate(-286.47, -133.95)" d="M 221.97 159.24 Q 232.13 163.57 240.47 170.79 Q 240.82 171.09 241.28 171.04 Q 261.01 168.82 267.98 186.79 Q 268.39 187.86 267.32 188.28 C 255.77 192.81 241.78 186.36 240.22 173.17 C 239.99 171.22 239.28 170.91 237.69 170.09 Q 228.2 165.17 218.6 160.45 C 212.07 157.23 206.11 155.58 199.22 154.06 A 0.52 0.52 0 0 1 199.09 153.1 Q 199.98 152.64 201.21 152.97 Q 220.02 157.98 239.46 157.61 Q 241.96 157.56 244.33 156.43 Q 256.96 150.42 269.62 144.47 Q 270.02 144.28 270.08 143.84 Q 272.8 124.26 292.35 121.1 Q 292.91 121.01 292.96 121.57 C 294.09 134.11 284.72 148.51 270.54 145.76 A 1.21 1.15 33.1 0 0 269.68 145.92 Q 260.48 151.79 250.52 156.24 A 0.3 0.3 0 0 0 250.69 156.81 Q 257.61 155.77 264.49 153.74 Q 282.57 148.39 299.57 140.29 C 306.14 137.15 312.33 129.88 317.09 124.45 Q 317.45 124.03 317.17 123.57 Q 306.82 106.24 320.05 91.29 Q 320.39 90.91 320.75 91.27 C 329.03 99.19 330.54 113.72 321.93 121.98 Q 318.26 125.51 317.53 126.45 Q 315.43 129.19 313.59 132.01 A 0.16 0.16 0 0 0 313.82 132.23 Q 333.58 118.31 350.97 101.54 Q 351.39 101.14 351.47 100.57 Q 354.11 81.26 373.32 78.22 Q 373.95 78.12 374.01 78.75 C 375.24 92.18 365.95 104.63 351.72 103.17 A 1.04 1.01 24.3 0 0 350.88 103.47 Q 338.98 115.57 325.81 126.25 A 0.18 0.18 0 0 0 325.99 126.55 Q 332.92 123.57 340.5 123.92 Q 340.96 123.94 341.31 123.64 Q 356.02 111.22 371.83 122.22 Q 372.28 122.54 371.96 122.99 C 364.78 132.92 348.91 137.71 340.45 126.45 Q 340.17 126.08 339.7 126.12 Q 325.83 127.26 315.68 133.66 Q 309.62 137.48 305.63 139.87 Q 301.26 142.48 295.04 145.03 Q 286.44 148.56 277.35 152.36 A 0.3 0.3 0 0 0 277.5 152.94 Q 288.56 151.81 299.46 153.92 A 1.06 1.06 0 0 0 300.35 153.69 Q 314.45 141.75 330.11 151.94 Q 331.06 152.56 330.41 153.49 C 323.36 163.52 306.83 167.5 298.88 155.63 Q 298.61 155.23 298.13 155.2 Q 278.53 154.24 259.28 157.49 Q 247.15 159.54 243.12 159.75 Q 232.59 160.31 222.07 158.86 A 0.2 0.2 0 0 0 221.97 159.24 Z" stroke-linecap="round" />
</g>
		<g transform="matrix(1 0 0 1 40.76 2.93)"  >
<path style="stroke: none; stroke-width: 1; stroke-dasharray: none; stroke-linecap: butt; stroke-dashoffset: 0; stroke-linejoin: miter; stroke-miterlimit: 4; fill: rgb(209,167,94); fill-rule: nonzero; opacity: 1;"  transform=" translate(-235.28, -125.51)" d="M 254.08 132.81 C 251.3 139.86 247.34 145.95 240.85 149.7 C 234.84 153.17 225.08 154.57 218.97 150.17 Q 216.26 148.22 214.25 145.35 Q 213.93 144.9 214.25 144.44 C 221.62 133.99 222.5 120.93 219.27 108.78 Q 219.15 108.32 219.47 107.96 C 226.3 100.35 238.61 94.5 247.73 100.71 C 257.75 107.53 258.25 122.21 254.08 132.81 Z" stroke-linecap="round" />
</g>
		<g transform="matrix(1 0 0 1 -40.77 3.48)"  >
<path style="stroke: none; stroke-width: 1; stroke-dasharray: none; stroke-linecap: butt; stroke-dashoffset: 0; stroke-linejoin: miter; stroke-miterlimit: 4; fill: rgb(209,167,94); fill-rule: nonzero; opacity: 1;"  transform=" translate(-153.75, -126.06)" d="M 168.36 106.29 C 163.62 119.35 164.31 135.91 174.24 146.42 A 0.71 0.7 47 0 1 174.21 147.42 C 172.11 149.38 170.07 151.34 167.18 152.04 Q 159.07 154.02 151.88 151.15 C 138.13 145.66 129.91 126.07 134.21 112.27 C 139.35 95.75 156.86 95.32 168.17 105.53 Q 168.52 105.84 168.36 106.29 Z" stroke-linecap="round" />
</g>
		<g transform="matrix(1 0 0 1 96.1 83.53)"  >
<path style="stroke: none; stroke-width: 1; stroke-dasharray: none; stroke-linecap: butt; stroke-dashoffset: 0; stroke-linejoin: miter; stroke-miterlimit: 4; fill: rgb(48,50,49); fill-rule: nonzero; opacity: 1;"  transform=" translate(-290.62, -206.12)" d="M 290.41 202.23 L 294.74 195.39 Q 295.06 194.89 295.54 195.23 L 297.9 196.85 Q 298.44 197.21 298.01 197.71 C 293.23 203.24 289.77 207.58 289.48 214.76 C 289.42 216.24 288.8 217.69 287.06 217.12 A 0.74 0.74 0 0 1 286.56 216.3 Q 286.73 215.2 285.93 214.38 Q 285.43 213.88 285.67 213.22 L 287 209.4 Q 287.16 208.94 286.81 208.59 Q 286.12 207.9 286.5 206.85 A 0.5 0.46 -47.4 0 0 286.5 206.52 L 283.13 197.19 Q 282.77 196.19 283.82 196.37 L 285.32 196.61 Q 285.84 196.7 286.06 197.19 L 288.78 203.39 Q 289.13 204.18 289.5 203.4 Q 289.58 203.23 289.64 203.07 Q 289.81 202.66 289.52 202.32 Q 289.28 202.05 289.72 201.7 Q 289.87 201.58 289.88 201.76 Q 289.88 201.92 289.88 202.07 A 0.29 0.29 0 0 0 290.41 202.23 Z M 294.04 200.14 Q 291.67 203.07 290.22 205.72 Q 290.09 205.96 290.3 206.19 Q 290.46 206.37 290.59 206.16 L 294.24 200.29 A 0.13 0.12 81.1 0 0 294.04 200.14 Z" stroke-linecap="round" />
</g>
		<g transform="matrix(1 0 0 1 -51.72 83.36)"  >
<path style="stroke: none; stroke-width: 1; stroke-dasharray: none; stroke-linecap: butt; stroke-dashoffset: 0; stroke-linejoin: miter; stroke-miterlimit: 4; fill: rgb(48,50,49); fill-rule: nonzero; opacity: 1;"  transform=" translate(-142.8, -205.95)" d="M 142.06 203.46 Q 146.32 204.82 148.71 208.61 A 1.09 1.08 43 0 1 148.75 209.69 Q 146.53 213.86 142.24 215.8 C 138.9 217.31 137.57 215.52 135.93 212.94 A 0.76 0.76 0 0 1 136.65 211.78 Q 141.28 212.27 144.52 209.07 A 1.23 1.22 -59.6 0 0 143.99 207.01 L 138.54 205.51 A 2.9 2.89 -68.7 0 1 136.73 201.39 C 138.08 198.76 140.83 197.66 143.09 195.82 Q 143.49 195.49 143.99 195.63 L 148.66 196.92 A 1.53 1.52 -39.9 0 1 148.39 199.91 Q 144.66 200.25 141.91 202.76 Q 141.38 203.24 142.06 203.46 Z M 141.61 200.87 Q 141.06 201.41 141.75 201.08 L 145.58 199.27 A 0.21 0.21 0 0 0 145.42 198.89 Q 142.61 199.89 141.61 200.87 Z" stroke-linecap="round" />
</g>
		<g transform="matrix(1 0 0 1 -94.63 83.1)"  >
<path style="stroke: none; stroke-width: 1; stroke-dasharray: none; stroke-linecap: butt; stroke-dashoffset: 0; stroke-linejoin: miter; stroke-miterlimit: 4; fill: rgb(48,50,49); fill-rule: nonzero; opacity: 1;"  transform=" translate(-99.89, -205.69)" d="M 95.97 211.05 L 105.13 210.28 Q 106.48 210.16 106.39 211.52 Q 106.27 213.23 103.98 213.78 Q 98.78 215.02 93.43 215.38 A 0.63 0.62 -1.3 0 1 92.76 214.75 Q 92.77 213.45 93.3 212.28 Q 93.49 211.86 93.52 211.39 Q 94.03 203.87 95.45 196.48 Q 95.54 196 96.02 196 L 105.97 196.01 A 1.07 1.06 -86.6 0 1 107.02 197.2 C 106.71 199.83 101.53 198.88 99.74 198.89 A 0.57 0.57 0 0 0 99.18 199.34 L 98.33 202.96 Q 98.17 203.64 98.87 203.6 L 104.71 203.21 A 1.14 1.14 0 0 1 105.16 205.43 Q 101.59 206.67 97.97 206.55 Q 97.26 206.53 97.19 207.23 Q 97 209.09 95.63 210.23 A 0.47 0.47 0 0 0 95.97 211.05 Z" stroke-linecap="round" />
</g>
		<g transform="matrix(1 0 0 1 -74.03 84.97)"  >
<path style="stroke: none; stroke-width: 1; stroke-dasharray: none; stroke-linecap: butt; stroke-dashoffset: 0; stroke-linejoin: miter; stroke-miterlimit: 4; fill: rgb(48,50,49); fill-rule: nonzero; opacity: 1;"  transform=" translate(-120.49, -207.56)" d="M 124.45 214.33 Q 123.15 211.66 123.2 208.64 Q 123.21 208.13 122.7 208.08 Q 121.75 207.99 120.73 208.3 A 0.26 0.26 0 0 0 120.73 208.8 L 121.75 209.13 A 0.22 0.22 0 0 1 121.69 209.56 Q 116.91 209.69 115.97 214.81 Q 115.71 216.22 114.33 215.87 Q 113.84 215.75 113.86 215.24 Q 113.91 213.91 112.62 213.97 A 0.58 0.57 9.8 0 1 112.06 213.18 L 115.5 204.64 A 0.89 0.89 0 0 1 115.95 204.16 Q 116.94 203.71 116.57 202.81 A 0.81 0.8 -47.5 0 1 116.55 202.26 L 118.49 196.62 Q 118.64 196.18 119.1 196.16 L 123.66 195.99 Q 124.41 195.96 124.59 196.69 L 126.73 205.3 A 0.86 0.84 86.8 0 0 127.43 205.94 L 128.66 206.12 A 0.35 0.35 0 0 1 128.69 206.81 L 127.75 207 Q 127.21 207.11 127.22 207.67 L 127.32 218.26 Q 127.32 218.6 126.99 218.7 L 125.94 219.03 Q 125.43 219.2 125.37 218.66 Q 125.15 216.7 123.76 215.31 A 0.67 0.63 -80.3 0 1 123.62 215.1 Q 123.38 214.52 123.84 214.41 A 0.12 0.11 -19.3 0 1 123.97 214.47 Q 124.05 214.66 124.23 214.67 Q 124.62 214.68 124.45 214.33 Z M 121.08 201.37 L 119.57 205.28 A 1.15 1.15 0 0 0 121.66 206.22 Q 122.85 203.9 121.23 201.36 A 0.09 0.08 40.1 0 0 121.08 201.37 Z" stroke-linecap="round" />
</g>
		<g transform="matrix(1 0 0 1 -31.99 84.38)"  >
<path style="stroke: none; stroke-width: 1; stroke-dasharray: none; stroke-linecap: butt; stroke-dashoffset: 0; stroke-linejoin: miter; stroke-miterlimit: 4; fill: rgb(48,50,49); fill-rule: nonzero; opacity: 1;"  transform=" translate(-162.53, -206.96)" d="M 159.89 210.54 Q 159.42 210.49 159.25 210.12 Q 159.13 209.85 159.24 209.38 Q 160.32 204.59 160.76 199.57 Q 160.8 199.15 160.37 199.17 L 155.18 199.39 A 0.71 0.7 83.4 0 1 154.46 198.81 Q 153.96 196.2 156.25 196.11 Q 163.4 195.83 170.01 196.15 A 0.89 0.89 0 0 1 170.11 197.92 L 165.64 198.64 Q 165.28 198.7 165.18 199.06 Q 162.67 208.17 162.54 217.61 Q 162.54 218.06 162.1 217.98 Q 161.98 217.96 161.82 217.93 Q 161.73 217.92 161.75 217.83 Q 162.27 215.68 162.05 213.48 A 0.42 0.41 -48.2 0 0 161.22 213.53 L 161.25 217.41 Q 161.25 217.96 160.7 217.9 Q 158.88 217.73 158.88 215.45 Q 158.87 213.02 160.08 210.91 Q 160.27 210.58 159.89 210.54 Z" stroke-linecap="round" />
</g>
		<g transform="matrix(1 0 0 1 -13.09 83.11)"  >
<path style="stroke: none; stroke-width: 1; stroke-dasharray: none; stroke-linecap: butt; stroke-dashoffset: 0; stroke-linejoin: miter; stroke-miterlimit: 4; fill: rgb(48,50,49); fill-rule: nonzero; opacity: 1;"  transform=" translate(-181.43, -205.7)" d="M 178.46 207.24 L 176.97 210.56 Q 176.72 211.1 177.32 211.06 L 187.4 210.26 Q 188.02 210.21 188.01 210.83 Q 187.97 213.25 186.31 213.63 Q 180.8 214.9 175.15 215.39 A 0.8 0.8 0 0 1 174.28 214.64 Q 174.2 212.99 175.18 211.65 Q 175.47 211.26 175.46 210.78 Q 175.41 203.53 177.02 196.42 Q 177.11 196 177.55 196 L 187.48 196.01 A 1.12 1.12 0 0 1 188.47 197.66 C 187.33 199.75 183.43 198.79 181.36 198.9 Q 180.74 198.93 180.61 199.53 L 179.83 203.01 A 0.5 0.49 -86.1 0 0 180.35 203.61 L 186.17 203.21 A 1.14 1.14 0 0 1 186.64 205.42 Q 183.19 206.69 179.72 206.48 A 1.29 1.28 13.7 0 0 178.46 207.24 Z" stroke-linecap="round" />
</g>
		<g transform="matrix(1 0 0 1 7.89 85.12)"  >
<path style="stroke: none; stroke-width: 1; stroke-dasharray: none; stroke-linecap: butt; stroke-dashoffset: 0; stroke-linejoin: miter; stroke-miterlimit: 4; fill: rgb(48,50,49); fill-rule: nonzero; opacity: 1;"  transform=" translate(-202.41, -207.7)" d="M 206.03 205.28 L 207.23 204.26 Q 208.23 203.41 207.65 204.59 Q 206.33 207.3 203.47 208.25 Q 202.83 208.47 203.26 208.99 L 209.53 216.63 A 1.76 1.73 29 0 1 209.91 217.92 Q 209.65 220.1 207.75 218.72 Q 202.43 214.86 199.77 209.09 A 0.42 0.42 0 0 0 198.97 209.22 L 198.26 215.36 Q 198.18 216.02 197.54 215.86 L 195.38 215.31 A 0.62 0.61 6.9 0 1 194.92 214.73 Q 194.85 209.11 196.43 205.67 Q 197.56 203.2 197.63 201.27 Q 197.65 200.72 197.1 200.69 L 196.27 200.64 Q 195.85 200.62 195.8 200.2 L 195.69 199.25 Q 195.64 198.85 195.92 198.57 Q 198.89 195.44 202.72 196.05 Q 208.22 196.93 207.42 202.6 Q 207.37 202.98 207.12 203.27 L 205.71 204.96 A 0.23 0.23 0 0 0 206.03 205.28 Z M 205.97 201.29 Q 206.06 201.43 206.18 201.49 Q 207.41 202.04 206.23 201.15 Q 204.3 199.68 201.91 199.5 A 0.89 0.89 0 0 0 200.97 200.2 L 200.01 204.76 Q 199.86 205.49 200.54 205.21 Q 203.6 203.97 205.47 201.28 Q 205.73 200.9 205.97 201.29 Z" stroke-linecap="round" />
</g>
		<g transform="matrix(1 0 0 1 52.33 83.11)"  >
<path style="stroke: none; stroke-width: 1; stroke-dasharray: none; stroke-linecap: butt; stroke-dashoffset: 0; stroke-linejoin: miter; stroke-miterlimit: 4; fill: rgb(48,50,49); fill-rule: nonzero; opacity: 1;"  transform=" translate(-246.85, -205.7)" d="M 239.76 213.43 L 239.28 212.79 Q 238.99 212.41 239 211.94 Q 239.24 204.25 241.01 196.78 Q 241.14 196.24 241.69 196.16 Q 249.55 195.05 253.05 200.55 C 258.29 208.77 250.03 214.53 243.02 215.77 Q 242.46 215.86 242.01 215.53 Q 241.24 214.94 240.59 215.68 A 0.38 0.38 0 0 1 239.93 215.39 L 240.02 214.32 Q 240.06 213.83 239.76 213.43 Z M 244.09 200.56 L 242.75 209.95 Q 242.67 210.53 243.24 210.43 Q 247.79 209.66 249.02 208.55 Q 252.54 205.38 250.82 200.92 Q 250.59 200.33 249.96 200.26 L 245.19 199.71 A 1 0.99 7.1 0 0 244.09 200.56 Z M 253.13 206.94 Q 253.08 207.12 253.19 207.25 Q 254.05 208.23 253.73 207.23 L 252.71 203.99 Q 252.39 202.96 252.26 204.03 Q 252.1 205.35 252.98 206.27 Q 253.25 206.56 253.13 206.94 Z" stroke-linecap="round" />
</g>
		<g transform="matrix(1 0 0 1 73.56 85.13)"  >
<path style="stroke: none; stroke-width: 1; stroke-dasharray: none; stroke-linecap: butt; stroke-dashoffset: 0; stroke-linejoin: miter; stroke-miterlimit: 4; fill: rgb(48,50,49); fill-rule: nonzero; opacity: 1;"  transform=" translate(-268.08, -207.71)" d="M 270.72 210.29 Q 270.22 209.71 270.76 208.81 A 0.52 0.52 0 0 0 270.24 208.03 L 267.74 208.39 A 0.25 0.25 0 0 0 267.79 208.89 Q 268.28 208.86 268.74 209.01 Q 269.46 209.24 268.75 209.49 L 265.28 210.74 Q 264.73 210.94 264.53 211.49 L 263.1 215.45 A 1.38 1.38 0 0 1 260.78 215.91 Q 260.16 215.23 260.46 214.8 Q 260.69 214.48 260.96 214.76 Q 261.2 215 261.49 215.06 Q 261.65 214.65 260.37 214.28 A 1.02 1.02 0 0 1 259.72 212.93 L 266.22 196.57 Q 266.37 196.2 266.77 196.18 L 271.49 195.98 Q 271.99 195.95 272.1 196.44 L 273.78 203.97 Q 273.88 204.41 274.34 204.42 Q 275.03 204.42 274.59 204.95 A 0.63 0.63 0 0 0 274.96 205.97 L 276.25 206.23 A 0.34 0.34 0 0 1 276.22 206.9 L 275.49 206.98 Q 274.73 207.06 274.73 207.82 L 274.69 218.51 A 0.92 0.92 0 0 1 272.85 218.57 Q 272.73 216.86 271.5 215.83 A 0.86 0.86 0 0 1 271.26 214.88 Q 272.06 212.78 271.01 210.72 Q 270.89 210.49 270.72 210.29 Z M 266.91 205.8 A 0.45 0.45 0 0 0 267.3 206.4 L 268.65 206.47 Q 269.22 206.5 269.39 205.95 Q 270.05 203.77 268.87 201.73 Q 268.55 201.19 268.34 201.78 L 266.91 205.8 Z M 266.11 203.5 Q 265.59 204.01 265.54 204.48 A 0.15 0.15 0 0 0 265.82 204.58 L 266.63 203.28 A 0.21 0.21 0 0 0 266.29 203.05 Q 266.15 203.24 266.11 203.5 Z" stroke-linecap="round" />
</g>
		<g transform="matrix(1 0 0 1 29.29 83.7)"  >
<path style="stroke: none; stroke-width: 1; stroke-dasharray: none; stroke-linecap: butt; stroke-dashoffset: 0; stroke-linejoin: miter; stroke-miterlimit: 4; fill: rgb(48,50,49); fill-rule: nonzero; opacity: 1;"  transform=" translate(-223.81, -206.29)" d="M 226.27 209.24 L 228.9 197.44 Q 229.07 196.69 229.81 196.88 L 232.15 197.5 Q 232.71 197.65 232.59 198.22 L 229.32 214 Q 229.21 214.52 229.05 214.02 Q 228.85 213.39 228.91 212.68 Q 228.96 212.1 228.69 212.61 Q 228.39 213.19 228.15 214.38 Q 227.77 216.34 225.89 216.17 A 0.45 0.45 0 0 1 225.5 215.84 Q 223.7 209.01 220.48 202.7 Q 220.05 201.86 219.92 202.8 L 218.44 213.05 A 1.54 1.53 -54 0 1 215.54 213.51 C 213.83 210.01 216.41 201.19 217.48 197.37 A 1.42 1.41 -66.9 0 1 219.56 196.53 L 221.97 197.94 A 0.84 0.84 0 0 1 222.3 198.3 Q 224.83 203.55 225.95 209.24 A 0.16 0.16 0 0 0 226.27 209.24 Z" stroke-linecap="round" />
</g>
		<g transform="matrix(1 0 0 1 -51.08 77.51)"  >
<path style="stroke: none; stroke-width: 1; stroke-dasharray: none; stroke-linecap: butt; stroke-dashoffset: 0; stroke-linejoin: miter; stroke-miterlimit: 4; fill: rgb(255,255,255); fill-rule: nonzero; opacity: 1;"  transform=" translate(-143.44, -200.1)" d="M 141.61 200.87 Q 142.61 199.89 145.42 198.89 A 0.21 0.21 0 0 1 145.58 199.27 L 141.75 201.08 Q 141.06 201.41 141.61 200.87 Z" stroke-linecap="round" />
</g>
		<g transform="matrix(1 0 0 1 97.68 80.62)"  >
<path style="stroke: none; stroke-width: 1; stroke-dasharray: none; stroke-linecap: butt; stroke-dashoffset: 0; stroke-linejoin: miter; stroke-miterlimit: 4; fill: rgb(255,255,255); fill-rule: nonzero; opacity: 1;"  transform=" translate(-292.2, -203.2)" d="M 294.04 200.14 A 0.13 0.12 81.1 0 1 294.24 200.29 L 290.59 206.16 Q 290.46 206.37 290.3 206.19 Q 290.09 205.96 290.22 205.72 Q 291.67 203.07 294.04 200.14 Z" stroke-linecap="round" />
</g>
		<g transform="matrix(1 0 0 1 9 79.85)"  >
<path style="stroke: none; stroke-width: 1; stroke-dasharray: none; stroke-linecap: butt; stroke-dashoffset: 0; stroke-linejoin: miter; stroke-miterlimit: 4; fill: rgb(255,255,255); fill-rule: nonzero; opacity: 1;"  transform=" translate(-203.52, -202.44)" d="M 205.47 201.28 Q 203.6 203.97 200.54 205.21 Q 199.86 205.49 200.01 204.76 L 200.97 200.2 A 0.89 0.89 0 0 1 201.91 199.5 Q 204.3 199.68 206.23 201.15 Q 207.41 202.04 206.18 201.49 Q 206.06 201.43 205.97 201.29 Q 205.73 200.9 205.47 201.28 Z" stroke-linecap="round" />
</g>
		<g transform="matrix(1 0 0 1 52.81 82.51)"  >
<path style="stroke: none; stroke-width: 1; stroke-dasharray: none; stroke-linecap: butt; stroke-dashoffset: 0; stroke-linejoin: miter; stroke-miterlimit: 4; fill: rgb(255,255,255); fill-rule: nonzero; opacity: 1;"  transform=" translate(-247.33, -205.09)" d="M 244.09 200.56 A 1 0.99 7.1 0 1 245.19 199.71 L 249.96 200.26 Q 250.59 200.33 250.82 200.92 Q 252.54 205.38 249.02 208.55 Q 247.79 209.66 243.24 210.43 Q 242.67 210.53 242.75 209.95 L 244.09 200.56 Z" stroke-linecap="round" />
</g>
		<g transform="matrix(1 0 0 1 -73.51 81.48)"  >
<path style="stroke: none; stroke-width: 1; stroke-dasharray: none; stroke-linecap: butt; stroke-dashoffset: 0; stroke-linejoin: miter; stroke-miterlimit: 4; fill: rgb(255,255,255); fill-rule: nonzero; opacity: 1;"  transform=" translate(-121, -204.07)" d="M 121.08 201.37 A 0.09 0.08 40.1 0 1 121.23 201.36 Q 122.85 203.9 121.66 206.22 A 1.15 1.15 0 0 1 119.57 205.28 L 121.08 201.37 Z" stroke-linecap="round" />
</g>
		<g transform="matrix(1 0 0 1 73.84 81.32)"  >
<path style="stroke: none; stroke-width: 1; stroke-dasharray: none; stroke-linecap: butt; stroke-dashoffset: 0; stroke-linejoin: miter; stroke-miterlimit: 4; fill: rgb(255,255,255); fill-rule: nonzero; opacity: 1;"  transform=" translate(-268.36, -203.91)" d="M 266.91 205.8 L 268.34 201.78 Q 268.55 201.19 268.87 201.73 Q 270.05 203.77 269.39 205.95 Q 269.22 206.5 268.65 206.47 L 267.3 206.4 A 0.45 0.45 0 0 1 266.91 205.8 Z" stroke-linecap="round" />
</g>
		<g transform="matrix(1 0 0 1 71.57 81.24)"  >
<path style="stroke: none; stroke-width: 1; stroke-dasharray: none; stroke-linecap: butt; stroke-dashoffset: 0; stroke-linejoin: miter; stroke-miterlimit: 4; fill: rgb(255,255,255); fill-rule: nonzero; opacity: 1;"  transform=" translate(-266.09, -203.83)" d="M 266.11 203.5 Q 266.15 203.24 266.29 203.05 A 0.21 0.21 0 0 1 266.63 203.28 L 265.82 204.58 A 0.15 0.15 0 0 1 265.54 204.48 Q 265.59 204.01 266.11 203.5 Z" stroke-linecap="round" />
</g>
		<g transform="matrix(1 0 0 1 58.53 83.02)"  >
<path style="stroke: none; stroke-width: 1; stroke-dasharray: none; stroke-linecap: butt; stroke-dashoffset: 0; stroke-linejoin: miter; stroke-miterlimit: 4; fill: rgb(255,255,255); fill-rule: nonzero; opacity: 1;"  transform=" translate(-253.05, -205.6)" d="M 252.98 206.27 Q 252.1 205.35 252.26 204.03 Q 252.39 202.96 252.71 203.99 L 253.73 207.23 Q 254.05 208.23 253.19 207.25 Q 253.08 207.12 253.13 206.94 Q 253.25 206.56 252.98 206.27 Z" stroke-linecap="round" />
</g>
</g>
</g>
</svg>