<svg width="600" height="200" xmlns="http://www.w3.org/2000/svg" version="1.1" preserveAspectRatio="none" ref="svg_canvas">
 <title>easterNday</title>

 <g>
  <title>Layer 1</title>
  <g stroke="null" display="inline" transform="translate(211.864 137.488) scale(1 1)" key="shape_4raf6927vl" ref="shape_4raf6927vl" id="shape_4raf6927vl">
   <g stroke="null" id="svg_4" display="inline">
    <rect stroke="null" id="svg_5" y="-135" x="-154.99997" height="196.96231" width="474.20076" fill="rgba(0,0,0,0)"/>
    <g stroke="null" transform="matrix(1.19687 0 0 0.627344 -22.1474 14.3078)" id="svg_67">
     <svg stroke="null" data-parent="shape_4raf6927vl" preserveAspectRatio="none" class="style-removed" height="293.96231" width="376.20081" xml:space="preserve" viewBox="0 0 233.3 182.3" y="-228" x="-101" id="svg_1" version="1.1" xmlns:xlink="http://www.w3.org/1999/xlink" xmlns="http://www.w3.org/2000/svg">
      <g stroke="null" id="svg_6">
       <g stroke="null" id="svg_7">
        <g stroke="null" id="svg_8">
         <path stroke="null" id="svg_9" stroke-width="0" fill="#00B1F2" d="m128.5,13.4l-85,0c-1,0 -1.9,-0.8 -1.9,-1.9s0.8,-1.9 1.9,-1.9l85,0c1,0 1.9,0.8 1.9,1.9s-0.9,1.9 -1.9,1.9z"/>
        </g>
        <g stroke="null" id="svg_10">
         <path stroke="null" id="svg_11" stroke-width="0" fill="#00B1F2" d="m98,3.7l-24.1,0c-1,0 -1.9,-0.8 -1.9,-1.9s0.9,-1.8 1.9,-1.8l24.1,0c1,0 1.9,0.8 1.9,1.9s-0.8,1.8 -1.9,1.8z"/>
        </g>
        <g stroke="null" id="svg_12">
         <path stroke="null" id="svg_13" stroke-width="0" fill="#00B1F2" d="m147.3,25.7l-122.7,0c-1,0 -1.9,-0.8 -1.9,-1.9s0.8,-1.9 1.9,-1.9l122.7,0c1,0 1.9,0.8 1.9,1.9s-0.8,1.9 -1.9,1.9z"/>
        </g>
        <g stroke="null" id="svg_14">
         <path stroke="null" id="svg_15" stroke-width="0" fill="#00B1F2" d="m161.4,40.1l-150.8,0c-1,0 -1.9,-0.8 -1.9,-1.9c0,-1 0.8,-1.9 1.9,-1.9l150.8,0c1,0 1.9,0.8 1.9,1.9c-0.1,1.1 -0.9,1.9 -1.9,1.9z"/>
        </g>
        <g stroke="null" id="svg_16">
         <path stroke="null" id="svg_17" stroke-width="0" fill="#00B1F2" d="m170.1,56.8l-168.2,0c-1.1,0 -1.9,-0.8 -1.9,-1.8c0,-1 0.8,-1.9 1.9,-1.9l168.2,0c1,0 1.9,0.8 1.9,1.9c0,1 -0.9,1.8 -1.9,1.8z"/>
        </g>
        <g stroke="null" id="svg_18">
         <path stroke="null" id="svg_19" stroke-width="0" fill="#00B1F2" d="m127.7,173l-83.4,0c-1,0 -1.9,-0.8 -1.9,-1.9c0,-1 0.8,-1.9 1.9,-1.9l83.4,0c1,0 1.9,0.8 1.9,1.9c-0.1,1.1 -0.9,1.9 -1.9,1.9z"/>
        </g>
        <g stroke="null" id="svg_20">
         <path stroke="null" id="svg_21" stroke-width="0" fill="#00B1F2" d="m99.1,182.3l-26.2,0c-1,0 -1.9,-0.8 -1.9,-1.9c0,-1 0.8,-1.9 1.9,-1.9l26.2,0c1,0 1.9,0.8 1.9,1.9c0,1.1 -0.9,1.9 -1.9,1.9z"/>
        </g>
        <g stroke="null" id="svg_22">
         <path stroke="null" id="svg_23" stroke-width="0" fill="#00B1F2" d="m146.7,160.8l-121.4,0c-1,0 -1.9,-0.8 -1.9,-1.9c0,-1 0.8,-1.9 1.9,-1.9l121.4,0c1,0 1.9,0.8 1.9,1.9c-0.1,1.1 -0.9,1.9 -1.9,1.9z"/>
        </g>
        <g stroke="null" id="svg_24">
         <path stroke="null" id="svg_25" stroke-width="0" fill="#00B1F2" d="m160.4,146.3l-148.8,0c-1,0 -1.9,-0.8 -1.9,-1.9c0,-1 0.8,-1.9 1.9,-1.9l148.8,0c1,0 1.9,0.8 1.9,1.9c0,1.1 -0.9,1.9 -1.9,1.9z"/>
        </g>
        <g stroke="null" id="svg_26">
         <path stroke="null" id="svg_27" stroke-width="0" fill="#00B1F2" d="m169.9,129.6l-167.9,0c-1,0 -1.9,-0.8 -1.9,-1.9s0.8,-1.9 1.9,-1.9l167.9,0c1,0 1.9,0.8 1.9,1.9s-0.9,1.9 -1.9,1.9z"/>
        </g>
       </g>
       <g stroke="null" id="svg_28">
        <path stroke="null" id="svg_29" stroke-width="0" fill="#e81123" d="m135.3,3.7l24.1,0c1,0 1.9,-0.8 1.9,-1.9s-0.8,-1.8 -1.9,-1.8l-24.1,0c-1,0 -1.9,0.8 -1.9,1.9s0.8,1.8 1.9,1.8z"/>
        <path stroke="null" id="svg_30" stroke-width="0" fill="#e81123" d="m189,169.3l-58.6,0c-0.6,-0.9 -1.6,-1.5 -2.8,-1.5l-22,0c-1.8,0 -3.3,1.5 -3.3,3.3s1.5,3.3 3.3,3.3l22,0c1.2,0 2.2,-0.6 2.8,-1.5l58.6,0c1,0 1.9,-0.8 1.9,-1.9c0,-0.8 -0.8,-1.7 -1.9,-1.7z"/>
        <path stroke="null" id="svg_31" stroke-width="0" fill="#e81123" d="m160.5,178.6l-26.2,0c-1,0 -1.9,0.8 -1.9,1.9c0,1 0.8,1.9 1.9,1.9l26.2,0c1,0 1.9,-0.8 1.9,-1.9c-0.1,-1.1 -0.9,-1.9 -1.9,-1.9z"/>
        <path stroke="null" id="svg_32" stroke-width="0" fill="#e81123" d="m208,157.1l-58.6,0c-0.6,-0.9 -1.6,-1.5 -2.8,-1.5l-60,0c-1.8,0 -3.3,1.5 -3.3,3.3s1.5,3.3 3.3,3.3l60,0c1.2,0 2.2,-0.6 2.8,-1.5l58.6,0c1,0 1.9,-0.8 1.9,-1.9c0,-0.9 -0.8,-1.7 -1.9,-1.7z"/>
        <path stroke="null" id="svg_33" stroke-width="0" fill="#e81123" d="m221.8,142.6l-58.6,0c-0.6,-0.9 -1.6,-1.5 -2.8,-1.5l-87.5,0c-1.8,0 -3.3,1.5 -3.3,3.3s1.5,3.3 3.3,3.3l87.5,0c1.2,0 2.2,-0.6 2.8,-1.5l58.6,0c1,0 1.9,-0.8 1.9,-1.9c-0.1,-0.9 -0.9,-1.7 -1.9,-1.7z"/>
        <path stroke="null" id="svg_34" stroke-width="0" fill="#e81123" d="m231.3,125.9l-58.6,0c-0.6,-0.9 -1.6,-1.5 -2.8,-1.5l-106.5,0c-1.8,0 -3.3,1.5 -3.3,3.3c0,1.8 1.5,3.3 3.3,3.3l106.5,0c1.2,0 2.2,-0.6 2.8,-1.5l58.6,0c1,0 1.9,-0.8 1.9,-1.9s-0.9,-1.7 -1.9,-1.7z"/>
        <path stroke="null" id="svg_35" stroke-width="0" fill="#e81123" d="m104.8,14.9l23.7,0c1.2,0 2.2,-0.6 2.8,-1.5l58.6,0c1,0 1.9,-0.8 1.9,-1.9s-0.8,-1.9 -1.9,-1.9l-58.6,0c-0.6,-0.9 -1.6,-1.5 -2.8,-1.5l-23.7,0c-1.8,0 -3.3,1.5 -3.3,3.3s1.5,3.5 3.3,3.5z"/>
        <path stroke="null" id="svg_36" stroke-width="0" fill="#e81123" d="m86,27.1l61.4,0c1.2,0 2.2,-0.6 2.8,-1.5l58.6,0c1,0 1.9,-0.8 1.9,-1.9s-0.8,-1.9 -1.9,-1.9l-58.6,0c-0.6,-0.9 -1.6,-1.5 -2.8,-1.5l-61.4,0c-1.8,0 -3.3,1.5 -3.3,3.3s1.4,3.5 3.3,3.5z"/>
        <path stroke="null" id="svg_37" stroke-width="0" fill="#e81123" d="m72,41.6l89.4,0c1.2,0 2.2,-0.6 2.8,-1.5l58.6,0c1,0 1.9,-0.8 1.9,-1.9c0,-1 -0.8,-1.9 -1.9,-1.9l-58.6,0c-0.6,-0.9 -1.6,-1.5 -2.8,-1.5l-89.4,0c-1.8,0 -3.3,1.5 -3.3,3.3c-0.1,2 1.4,3.5 3.3,3.5z"/>
        <path stroke="null" id="svg_38" stroke-width="0" fill="#e81123" d="m63.2,58.3l106.9,0c1.2,0 2.2,-0.6 2.8,-1.5l58.6,0c1,0 1.9,-0.8 1.9,-1.9c0,-1 -0.8,-1.9 -1.9,-1.9l-58.6,0c-0.6,-0.9 -1.6,-1.5 -2.8,-1.5l-106.9,0c-1.8,0 -3.3,1.5 -3.3,3.3c0,2 1.5,3.5 3.3,3.5z"/>
       </g>
      </g>
     </svg>
    </g>
   </g>
  </g>
  <g stroke="null" display="inline" transform="translate(-126.466 -93.8206) scale(1 1)" key="shape_bIYUshz8fy" ref="shape_bIYUshz8fy" class="brand_name" id="shape_bIYUshz8fy">
   <g stroke="null" transform="matrix(0.707838 0 0 0.666667 142.084 75.43)" id="svg_3" display="inline">
    <svg stroke="null" y="-204.43501" x="-125.32775" id="svg_39" data-parent="shape_bIYUshz8fy" preserveAspectRatio="none" viewBox="0 0 1263.72 758.58" height="758.58" width="1263.72" version="1.1" xmlns:xlink="http://www.w3.org/1999/xlink" xmlns="http://www.w3.org/2000/svg">
     <rect stroke="null" id="svg_40" y="316.29" x="105.43" height="126" width="842" fill="rgba(0,0,0,0)"/>
     <g stroke="null" id="svg_41" data-width="841.44744">
      <path stroke="#000000" id="svg_42" data-glyph-descender="-14.86563" data-glyph-ascender="90.56437" data-glyph-h="105.43" data-glyph-w="77.52374" stroke-width="0.176" fill="#000000" d="m140.39628,345.97001l25.19,0l0,12.54l-19.5,0q-7.59,0 -11.07,1.06q-3.48,1.05 -5.8,4.11l0,0q-1.58,2.11 -2.16,4.22q-0.58,2.11 -1,7.17l0,0l39.53,0l0,12.54l-39.53,0q0.84,9.07 5.37,12.6q4.54,3.53 15.4,3.53l0,0l18.76,0l0,12.55l-19.5,0q-7.91,0 -13.92,-0.95l0,0q-9.49,-1.58 -15.07,-8.33l0,0q-8.02,-9.7 -8.02,-26.25l0,0q0,-18.34 11.28,-28.57l0,0q3.91,-3.48 8.28,-4.85q4.38,-1.37 11.76,-1.37l0,0z"/>
      <path stroke="#000000" id="svg_43" data-glyph-descender="-14.86563" data-glyph-ascender="90.56437" data-glyph-h="105.43" data-glyph-w="89.12104" stroke-width="0.176" fill="#000000" d="m201.05003,416.29001l-17.5,0l29.09,-70.32l17.19,0l29.1,70.32l-17.5,0l-6.86,-16.24l-26.67,0l-6.85,16.24zm30.26,-28.78l-10.02,-24.57l-10.02,24.57l20.04,0z"/>
      <path stroke="#000000" id="svg_44" data-glyph-descender="-14.86563" data-glyph-ascender="90.56437" data-glyph-h="105.43" data-glyph-w="86.27443" stroke-width="0.176" fill="#000000" d="m314.52106,416.29001l-35.32,0l0,-12.55l32.16,0q7.7,0 10.23,-1.47l0,0q3.69,-2.22 3.69,-6.64l0,0q0,-5.17 -4.33,-7.49l0,0q-2.42,-1.37 -7.8,-1.37l0,0l-13.07,0q-11.92,0 -17.19,-4.32l0,0q-3.27,-2.74 -5.11,-6.86q-1.85,-4.11 -1.85,-8.85l0,0q0,-7.38 4.33,-13.5l0,0q4.21,-5.9 13.49,-6.96l0,0q3.17,-0.31 9.39,-0.31l0,0l34.89,0l0,12.54l-31.52,0q-7.06,0.11 -9.38,0.64l0,0q-4.75,1.16 -4.75,7.17l0,0q0,5.06 4.01,6.74l0,0q2.63,1.27 8.85,1.27l0,0l11.29,0q8.64,0 12.86,1.47l0,0q7.48,2.54 10.33,8.86l0,0q2.21,5.06 2.21,10.86l0,0q0,6.43 -2.95,11.49l0,0q-4.11,7.17 -12.33,8.65l0,0q-4.01,0.63 -12.13,0.63l0,0z"/>
      <path stroke="#000000" id="svg_45" data-glyph-descender="-14.86563" data-glyph-ascender="90.56437" data-glyph-h="105.43" data-glyph-w="74.5717" stroke-width="0.176" fill="#000000" d="m381.39549,416.29001l0,-57.78l-22.35,0l0,-12.54l60.62,0l0,12.54l-23.3,0l0,57.78l-14.97,0z"/>
      <path stroke="#000000" id="svg_46" data-glyph-descender="-14.86563" data-glyph-ascender="90.56437" data-glyph-h="105.43" data-glyph-w="77.52374" stroke-width="0.176" fill="#000000" d="m467.88719,345.97001l25.19,0l0,12.54l-19.5,0q-7.59,0 -11.07,1.06q-3.48,1.05 -5.8,4.11l0,0q-1.58,2.11 -2.16,4.22q-0.58,2.11 -1,7.17l0,0l39.53,0l0,12.54l-39.53,0q0.84,9.07 5.37,12.6q4.54,3.53 15.4,3.53l0,0l18.76,0l0,12.55l-19.5,0q-7.91,0 -13.92,-0.95l0,0q-9.49,-1.58 -15.07,-8.33l0,0q-8.02,-9.7 -8.02,-26.25l0,0q0,-18.34 11.28,-28.57l0,0q3.91,-3.48 8.28,-4.85q4.38,-1.37 11.76,-1.37l0,0z"/>
      <path stroke="#000000" id="svg_47" data-glyph-descender="-14.86563" data-glyph-ascender="90.56437" data-glyph-h="105.43" data-glyph-w="88.2776" stroke-width="0.176" fill="#000000" d="m544.88093,389.62001l-12.02,0l0,26.67l-14.97,0l0,-70.32l34.37,0q14.76,0 20.56,3.79l0,0q4,2.53 6.17,6.7q2.16,4.16 2.16,9.12l0,0q0,10.01 -5.06,15.5l0,0q-3.17,3.26 -8.33,4.95l0,0q4.11,1.48 6.22,3.11q2.11,1.64 3.79,4.8l0,0q1.27,2.53 1.85,4.85q0.58,2.32 0.89,6.85l0,0q0.64,7.59 1.69,10.65l0,0l-16.76,0q-0.74,-2.42 -1.58,-10.02l0,0q-0.53,-6.11 -2.16,-9.38q-1.64,-3.27 -4.91,-5.17l0,0q-4.11,-2.21 -11.91,-2.1l0,0zm-12.02,-31.11l0,18.56l20.98,0q5.27,0 7.49,-1.58l0,0q3.37,-2.32 3.37,-8.12l0,0q0,-6.43 -5.06,-8.22l0,0q-1.79,-0.64 -5.8,-0.64l0,0l-20.98,0z"/>
      <path stroke="#000000" id="svg_48" data-glyph-descender="-14.86563" data-glyph-ascender="90.56437" data-glyph-h="105.43" data-glyph-w="88.69932" stroke-width="0.176" fill="#000000" d="m649.17852,416.29001l-28.67,-51.56l0,51.56l-14.34,0l0,-70.32l19.19,0l27.94,52.4l0,-52.4l14.23,0l0,70.32l-18.35,0z"/>
      <path stroke="#000000" id="svg_49" data-glyph-descender="-14.86563" data-glyph-ascender="90.56437" data-glyph-h="105.43" data-glyph-w="88.48846" stroke-width="0.176" fill="#000000" d="m694.86786,416.29001l0,-70.32l29.84,0q11.17,0 17.29,2.21l0,0q11.28,4.11 15.07,15.08l0,0q2.85,8.43 2.85,18.03l0,0q0,9.49 -2.74,17.92l0,0q-2.74,8.65 -9.07,12.76l0,0q-4,2.53 -8.8,3.42q-4.8,0.9 -14.6,0.9l0,0l-29.84,0zm29.84,-57.78l-14.87,0l0,45.23l14.87,0q9.8,0 13.6,-4.32l0,0q2.32,-2.74 3.74,-7.7q1.42,-4.95 1.42,-10.54l0,0q0,-6.22 -1.68,-11.38q-1.69,-5.17 -4.43,-7.7l0,0q-4.01,-3.59 -12.65,-3.59l0,0z"/>
      <path stroke="#000000" id="svg_50" data-glyph-descender="-14.86563" data-glyph-ascender="90.56437" data-glyph-h="105.43" data-glyph-w="89.12104" stroke-width="0.176" fill="#000000" d="m794.00633,416.29001l-17.5,0l29.09,-70.32l17.19,0l29.1,70.32l-17.5,0l-6.86,-16.24l-26.67,0l-6.85,16.24zm30.26,-28.78l-10.02,-24.57l-10.02,24.57l20.04,0z"/>
      <path stroke="#000000" id="svg_51" data-glyph-descender="-14.86563" data-glyph-ascender="90.56437" data-glyph-h="105.43" data-glyph-w="81.84637" stroke-width="0.176" fill="#000000" d="m891.55736,416.29001l0,-30.79l-26.04,-39.53l17.5,0l16.13,27.52l16.98,-27.52l17.81,0l-27.41,40.06l0,30.26l-14.97,0z"/>
     </g>
    </svg>
   </g>
  </g>
 </g>
</svg>